<svg xmlns="http://www.w3.org/2000/svg" width="15" height="14" viewBox="0 0 15 14"><g><g><path fill="#8c8b8c" d="M10.982 14H4.018C1.798 14 0 12.32 0 10.25v-6.5C0 1.679 1.799 0 4.018 0h6.964C13.202 0 15 1.679 15 3.75v6.5C15 12.32 13.2 14 10.982 14zm2.625-10.2c0-1.38-1.2-2.5-2.678-2.5H4.07c-1.479 0-2.678 1.12-2.678 2.5v6.4c0 1.38 1.2 2.5 2.678 2.5h6.858c1.479 0 2.678-1.12 2.678-2.5zm-2.062.3c-.489 0-.884-.37-.884-.825 0-.456.395-.825.884-.825.488 0 .884.37.884.825 0 .455-.396.825-.884.825zM7.5 10.6c-2.13 0-3.857-1.612-3.857-3.6S5.37 3.4 7.5 3.4s3.857 1.612 3.857 3.6S9.63 10.6 7.5 10.6zm0-5.95C6.11 4.65 4.982 5.702 4.982 7S6.11 9.35 7.5 9.35c1.39 0 2.518-1.052 2.518-2.35S8.89 4.65 7.5 4.65z"/></g></g></svg>