<svg xmlns="http://www.w3.org/2000/svg" width="15" height="8" viewBox="0 0 15 8"><g><g><path fill="#fff" d="M12.215 4.648c.116-.276.637-.938.985-1.49 1.1-1.545 1.332-1.876 1.332-2.097 0-.165-.116-.276-.29-.276h-2.606c-.116 0-.232.11-.29.221-.174.773-2.028 2.924-2.317 3.09-.116 0-.29-.276-.29-.828V.951a.51.51 0 0 0-.116-.496C8.391.234 8.102.234 7.291.234c-1.506 0-2.028.441-2.028.827 0 .166.116.276.232.276 0 0 .348.22.348 1.38 0 .441 0 .938-.058 1.379-.754-.11-1.738-1.876-2.26-3.145a.322.322 0 0 0-.29-.166H.919c-.173 0-.29.11-.29.276v.056c.348 1.655 3.998 6.841 6.373 6.841H8.16c.637 0 .637-.662.695-1.048.058-.386.058-.607.174-.607.347 0 1.1.607 1.564.993.463.386.81.662 1.043.662h1.448c.753 0 1.448 0 1.448-.552 0-.22-.174-.44-1.274-1.655a13.823 13.823 0 0 1-1.043-1.103z"/></g></g></svg>