<svg xmlns="http://www.w3.org/2000/svg" width="24" height="18" viewBox="0 0 24 18"><g><g ><path fill="#fff" d="M22.848 18H5.482a1.165 1.165 0 0 1-1.152-1.178v-.094H3.178a1.165 1.165 0 0 1-1.151-1.178v-.236h-.875A1.165 1.165 0 0 1 0 14.136V4.618c0-.65.516-1.178 1.152-1.178h.875v-.707c0-.65.515-1.178 1.151-1.178H4.33v-.377C4.33.528 4.846 0 5.482 0h17.366C23.484 0 24 .527 24 1.178v15.644c0 .65-.516 1.178-1.152 1.178zM2.027 4.382h-.645a.466.466 0 0 0-.46.471V13.9c0 .26.206.472.46.472h.645zM4.33 2.497H3.41a.466.466 0 0 0-.46.471v12.346c0 .26.205.471.46.471h.921zM23.08 1.414a.466.466 0 0 0-.461-.472H5.712a.466.466 0 0 0-.46.472v11.874c0 .26.206.471.46.471h16.906c.254 0 .46-.21.46-.471zm-4.515 10.602v.047h-8.75l-.002-.047c0-2.089 1.398-3.843 3.29-4.337-.935-.507-1.586-1.618-1.586-2.731 0-1.51 1.197-2.733 2.672-2.733 1.476 0 2.672 1.223 2.672 2.733 0 1.113-.651 2.224-1.585 2.73 1.891.495 3.29 2.25 3.29 4.338z"/></g></g></svg>