<svg xmlns="http://www.w3.org/2000/svg" width="18" height="23" viewBox="0 0 18 23"><g><g><path fill="#fff" d="M0 1.505C0 .674.653 0 1.458 0h15.085C17.348 0 18 .674 18 1.505v19.99c0 .831-.652 1.505-1.457 1.505H1.458C.653 23 0 22.326 0 21.495zm16.834.301a.593.593 0 0 0-.583-.602H1.75a.593.593 0 0 0-.583.602v19.28c0 .333.261.602.583.602h14.502c.322 0 .583-.27.583-.602zM3.853 3.47h5.982c.453 0 .821.367.821.821v.014a.821.821 0 0 1-.821.82H3.853a.821.821 0 0 1-.822-.82V4.29c0-.454.368-.821.822-.821zm0 4.562h10.513c.454 0 .821.368.821.822v.013a.821.821 0 0 1-.82.821H3.852a.821.821 0 0 1-.822-.821v-.013c0-.454.368-.822.822-.822zm-.01 2.75h10.532a.813.813 0 1 1 0 1.625H3.844a.813.813 0 0 1 0-1.625zm.01 2.719h10.513c.454 0 .821.368.821.821v.014a.821.821 0 0 1-.82.821H3.852a.821.821 0 0 1-.822-.821v-.014c0-.453.368-.821.822-.821zm-.01 2.75h3.282a.813.813 0 1 1 0 1.625H3.844a.813.813 0 0 1 0-1.625z"/></g></g></svg>