<svg xmlns="http://www.w3.org/2000/svg" width="22" height="21" viewBox="0 0 22 21"><g><g><path fill="#fff" d="M19.181 0l.429.53-4.474 4.291s-.117.127 0 .294a.72.72 0 0 0 .307.235s.174.142.306 0c.133-.142 4.413-4.292 4.413-4.292l.735.647-4.474 4.292s-.141.132 0 .294c.142.161.368.294.368.294s.2.062.306-.06c.108-.12 4.413-4.232 4.413-4.232l.49.47-6.25 6.703s-1.877-.147-3.004.294c-.436.455-4.29 4.291-4.29 4.291s-3.247 3.396-4.289 5.115c-1.44 2.087-2.451 1.823-2.451 1.823s-1.272.22-1.593-1.47c-.108-1.043 1.348-2.116 1.348-2.116s4.787-3.57 5.944-4.527c1.226-1.015 4.351-3.88 4.351-3.88s.429-.412.368-2.882C12.134 6.085 19.18 0 19.18 0zM.429.47l9.376 8.996s.158.16-.061.411c-.22.252-.98 1-.98 1s-.135.125-.307 0a2.687 2.687 0 0 1-.368-.353s-.1-.063-.245 0a2.973 2.973 0 0 1-.368.117s-.333.11-.613-.058c-.28-.17-6.41-4.08-6.863-8.76C.073.576.429.47.429.47zm11.337 11.17s.204-.19.429 0c.225.192 1.772 1.716 1.961 1.882 2.087 2.042 6.104 4.586 5.883 5.88-.172 1.387-1.25 1.199-1.532 1.175-1.164-.14-4.327-4.068-6.128-5.761-.834-.87-1.716-1.705-1.716-1.705s-.215-.24 0-.47c.214-.23 1.103-1 1.103-1z"/></g></g></svg>