<svg xmlns="http://www.w3.org/2000/svg" width="24" height="24" viewBox="0 0 24 24"><g><g><path fill="#fff" d="M22.51 24H7.09c-.822 0-1.49-.703-1.49-1.57v-.126H4.112c-.823 0-1.49-.704-1.49-1.571v-.314H1.49c-.823 0-1.49-.703-1.49-1.57V6.156c0-.867.667-1.57 1.49-1.57h1.132v-.943c0-.868.666-1.57 1.49-1.57H5.6V1.57C5.6.703 6.268 0 7.09 0h15.42C23.332 0 24 .703 24 1.57v20.86c0 .867-.667 1.57-1.49 1.57zM2.622 5.843h-.835c-.329 0-.595.281-.595.628v12.063c0 .347.266.628.595.628h.835zM5.6 3.33H4.409c-.329 0-.596.281-.596.628v16.46c0 .348.267.629.596.629h1.192zm17.207-1.445c0-.347-.266-.629-.596-.629H7.388c-.329 0-.596.282-.596.629v20.118c0 .347.267.628.596.628h14.824c.33 0 .596-.281.596-.628zM9.576 3.625h6.067c.473 0 .857.384.857.857v.005a.857.857 0 0 1-.857.857H9.576a.857.857 0 0 1-.857-.857v-.005c0-.473.383-.857.857-.857zm0 4.75h10.692c.473 0 .857.384.857.857v.005a.857.857 0 0 1-.857.857H9.576a.857.857 0 0 1-.857-.857v-.005c0-.473.383-.857.857-.857zm-.014 2.875h10.72a.844.844 0 0 1 0 1.687H9.561a.844.844 0 1 1 0-1.687zm.014 2.844h10.692c.473 0 .857.383.857.857v.004a.857.857 0 0 1-.857.857H9.576a.857.857 0 0 1-.857-.857v-.004c0-.474.383-.857.857-.857zm0 2.844h3.286c.473 0 .857.383.857.857v.004a.857.857 0 0 1-.857.857H9.576a.857.857 0 0 1-.857-.857v-.004c0-.474.383-.858.857-.858z"/></g></g></svg>