<svg xmlns="http://www.w3.org/2000/svg" width="24" height="14" viewBox="0 0 24 14"><g><g><path fill="#fff" d="M.805 0h21.952c.445 0 .805.36.805.805V.82c0 .444-.36.805-.805.805H.805A.805.805 0 0 1 0 .82V.805C0 .36.36 0 .805 0zm2.01 2.416H20.34l.563 6.174c0 .518-.457.939-.985.939-3.378-.386-5.633.017-7.836 2.147-.422.428-.993.386-1.314 0C8.328 8.472 2.956 9.53 2.956 9.53c-.544 0-.985-.42-.985-.94zm18.935-.01h1.187v7.528c.437.03.781.379.781.803L24 12.75c0 .445-.647.856-.845.94-.198.083-.35.222-.356.2-.237.16-.666.135-.932 0h-.002a4.69 4.69 0 0 0-.328-.2c-.436-.256-.845-.495-.845-.94l.282-2.013c0-.423.341-.77.776-.803zm.115 11.485c.01.007-.005 0 0 0z"/></g></g></svg>