<svg xmlns="http://www.w3.org/2000/svg" width="19" height="24" viewBox="0 0 19 24"><g><g><path fill="#e0c876" d="M18.998 12.957c-.016.49-.235 1.197-1.01 1.524a.965.965 0 0 0-.303.218s.139.374.1.598a.984.984 0 0 1-.1.327l-.05.599s-.102.585-.456.816c.152.327.101.817.101.817s.335 1.993-3.334 2.667c-3.19.313-2.849.98-3.942 3.048-.214.626-.858.381-.858.381l-6.519-3.647s-.435-.354-.151-1.143c.1-.374.1-.578.1-1.143C2.553 15.406.064 13.215 0 9.092.505-.143 9.044.002 9.044.002s7.466-.34 8.135 7.566a8.073 8.073 0 0 1-.1 1.089l1.818 3.592s.118.218.101.708zm-1.01-.055c-.054-.416-.286-.54-.404-.816-.118-.277-1.457-2.454-1.516-3.43-.021-.358.039-.559.05-1.088-.48-6.003-5.87-6.422-7.007-6.422C7.26 1.074 1.385 1.95.96 9.373c0 2.99 2.587 5.474 2.64 8.623 0 .51 0 .695-.092 1.034-.14.432.08.513.08.513l5.362 3.005s.275.154.398-.12c.99-1.872 1.352-2.656 4.244-2.94 3.046-.453 2.634-1.858 2.634-1.858s-.095-.364-.091-.739c-.022-.819.438-.886.438-.886s-.063-.163-.05-.49c.012-.263.13-.223.151-.38.034-.204-.207-.185-.233-.689-.025-.562.456-.75.637-.836.59-.25.967-.268.91-.708zM5.204 11.596s.05-.53-.859-1.089c-.91-.558-.808-1.415-.808-1.415s-.31-.674-.303-.925c-.038-.606.208-.524.202-1.361.088-.858.354-1.409 1.111-1.85.645-1.15 1.308-.736 1.617-.926.31-.19 1.94-.728 2.93-.762.993-.034 1.163.313 1.719.544.556.231.714.197 1.263.381.55.184.79 1.027 1.01 1.306.222.28.891.783.86 1.688-.032.905-.657 1.197-.657 1.197s-.234.558-.506.654c-.271.095-.745-.11-1.111-.11s-.606.382-.606.382-.184.898-1.264.925c-.473.027-.91-.218-.91-.218s-.163.007-.353.055c-.834.238-.96 1.143-.96 1.143v2.776c0 .36-.253.272-.253.272H5.507c-.195 0-.202-.218-.202-.218v-1.742z"/></g></g></svg>