<svg xmlns="http://www.w3.org/2000/svg" width="24" height="19" viewBox="0 0 24 19"><g><g><path fill="#fff" d="M22.737 8.383c-.806.916-4.867 5.324-6.341 6.543-.006.001-.37.413-.778.413-.406 0-.852-.39-.845-.39-.266-.26-.615-.603-1.016-1-1.545 1.66-3.63 3.837-4.598 4.638-.006.001-.371.413-.778.413-.406 0-.852-.39-.845-.39L.648 11.174A5.168 5.168 0 0 1 0 8.654C0 5.895 2.125 3.66 4.746 3.66c.926 0 1.79.28 2.521.763C7.535 1.934 9.544 0 11.983 0c1.46 0 2.765.694 3.635 1.785C16.49.694 17.794 0 19.254 0 21.875 0 24 2.235 24 4.992c0 1.31-.48 2.5-1.263 3.391zm-7.08 5.305c.771-.67 5.442-5.72 6.04-6.37a3.547 3.547 0 0 0 .925-2.407c0-1.912-1.473-3.462-3.291-3.462-.864 0-1.65.35-2.238.923-.648.633-.977 1.01-.977 1.01s-.258.271-.536.241c-.277-.03-.612-.402-.612-.402s-.125-.098-.701-.722a3.206 3.206 0 0 0-2.36-1.05c-1.819 0-3.292 1.55-3.292 3.462 0 .086.003.17.008.254.862-.928 2.064-1.504 3.394-1.504 2.621 0 4.746 2.235 4.746 4.992 0 1.31-.48 2.5-1.263 3.391-.143.162-.387.433-.701.777.5.516.833.855.858.867z"/></g></g></svg>