<svg xmlns="http://www.w3.org/2000/svg" width="25" height="24" viewBox="0 0 25 24"><g><g ><path fill="#fff" d="M23.53 15.065h-.069l-.52 7.896c0 .574-.439 1.039-.98 1.039h-1.765c-.541 0-.98-.465-.98-1.039l-.52-7.896h-.069c-.812 0-1.47-.698-1.47-1.559V8.208c0-.861.658-1.628 1.47-1.87 0 0 .8-.27 1.745-.374l.706.581.562-.595c.991.093 1.89.388 1.89.388.795.294 1.47 1.009 1.47 1.87v5.298c0 .861-.658 1.559-1.47 1.559zm.588-6.415c0-.565-.186-1.026-1.446-1.54 0 0-.584-.089-1.228-.15l-.366.39-.458-.38c-.615.068-1.135.14-1.135.14-1.059.359-1.446.975-1.446 1.54v4.62c0 .564.918 1.022 1.446 1.022h.045l.436 8.091c0 .377.285.682.637.682h.95c.353 0 .638-.305.638-.682l.436-8.09h.045c.527 0 1.446-.459 1.446-1.023zm-3.04-3.455c-1.353 0-2.45-1.163-2.45-2.598 0-1.434 1.097-2.597 2.45-2.597 1.354 0 2.451 1.163 2.451 2.597 0 1.435-1.097 2.598-2.45 2.598zm0-4.26c-.866 0-1.568.744-1.568 1.662 0 .918.702 1.663 1.568 1.663.867 0 1.569-.745 1.569-1.663S21.945.935 21.078.935zM15 15.065h-.068l-.52 7.896c0 .574-.44 1.039-.98 1.039h-1.765c-.542 0-.98-.465-.98-1.039l-.52-7.896h-.069c-.812 0-1.47-.698-1.47-1.559V8.208c0-.861.658-1.628 1.47-1.87 0 0 .799-.27 1.745-.374l.706.581.562-.595c.99.093 1.889.388 1.889.388.796.294 1.47 1.009 1.47 1.87v5.298c0 .861-.658 1.559-1.47 1.559zm-2.451-9.87c-1.354 0-2.451-1.163-2.451-2.598C10.098 1.163 11.195 0 12.549 0S15 1.163 15 2.597c0 1.435-1.097 2.598-2.451 2.598zm-6.176 9.87h-.069l-.52 7.896c0 .574-.439 1.039-.98 1.039H3.039c-.541 0-.98-.465-.98-1.039l-.52-7.896h-.068C.658 15.065 0 14.367 0 13.506V8.208c0-.861.658-1.628 1.47-1.87 0 0 .8-.27 1.746-.374l.706.581.561-.595c.991.093 1.89.388 1.89.388.795.294 1.47 1.009 1.47 1.87v5.298c0 .861-.658 1.559-1.47 1.559zM6.96 8.65c0-.565-.186-1.026-1.446-1.54 0 0-.584-.089-1.228-.15l-.365.39-.46-.38c-.614.068-1.134.14-1.134.14C1.27 7.47.882 8.086.882 8.65v4.62c0 .564.918 1.022 1.446 1.022h.045l.436 8.091c0 .377.285.682.637.682h.951c.352 0 .637-.305.637-.682l.436-8.09h.045c.528 0 1.446-.459 1.446-1.023zM3.92 5.195c-1.353 0-2.45-1.163-2.45-2.598C1.47 1.163 2.568 0 3.92 0c1.354 0 2.451 1.163 2.451 2.597 0 1.435-1.097 2.598-2.45 2.598zm0-4.26c-.866 0-1.568.744-1.568 1.662 0 .918.702 1.663 1.569 1.663.866 0 1.568-.745 1.568-1.663S4.788.935 3.922.935z"/></g></g></svg>