<svg xmlns="http://www.w3.org/2000/svg" width="24" height="23" viewBox="0 0 24 23"><g><g><path fill="#fff" d="M23.615 9.293l-6.628 5.07 2.385 8.021c.183.613-.014.785-.513.442l-6.954-4.777-6.895 4.736c-.533.367-.716.082-.483-.703l2.296-7.719s-4.22-3.227-6.32-4.835c-.698-.533-.669-.9.092-.92L8.764 8.4 11.598.395c.19-.535.427-.526.621.022L15.046 8.4l8.537.217c.548.014.554.276.032.676zM1.983 9.2c-.648.017-.883-.028-.5.28 1.79 1.372 6.189 4.506 6.189 4.506s-1.662 5.299-2.295 7.43c-.199.67-.253.66.201.348 1.204-.828 3.785-2.708 5.241-3.773H6.985l-.002-.053a5.002 5.002 0 0 1 3.767-4.842c-1.07-.565-1.815-1.805-1.815-3.048 0-.346.07-.672.176-.982-.652.01-5.105.083-7.128.134zm10.162-7.623c-.165-.467-.242-.433-.403.024a723.881 723.881 0 0 0-2.323 6.811 3.052 3.052 0 0 1 4.769-.485c-.545-1.751-1.56-4.983-2.043-6.35zm10.066 7.59c-1.71-.045-6.089-.057-7.32-.06.097.298.163.61.163.94 0 1.244-.746 2.484-1.815 3.05a5.002 5.002 0 0 1 3.767 4.841l-.002.053h-3.983c1.48 1.002 4.003 2.715 5.163 3.513.425.292.424.398.269-.125-.595-2.004-2.287-7.183-2.287-7.183s4.526-3.425 6.198-4.706c.446-.341.313-.312-.153-.324z"/></g></g></svg>