<svg xmlns="http://www.w3.org/2000/svg" width="24" height="13" viewBox="0 0 24 13"><g><g><path fill="#fff" d="M23.798 8.829h-1.815a.205.205 0 0 1-.202-.209V4.38c0-.116.09-.209.202-.209h1.815c.112 0 .202.093.202.209v4.24c0 .115-.09.209-.202.209zm-2.89 2.085h-1.816a.205.205 0 0 1-.201-.208V2.294c0-.115.09-.209.201-.209h1.815c.112 0 .202.094.202.21v8.41c0 .116-.09.21-.202.21zM18.016 13h-1.815a.205.205 0 0 1-.202-.209V.208c0-.115.09-.208.202-.208h1.815c.111 0 .201.093.201.208v12.583c0 .116-.09.209-.201.209zm-3.294-5.005H9.277a.205.205 0 0 1-.201-.209V5.283c0-.115.09-.208.201-.208h5.446c.111 0 .201.093.201.208v2.503c0 .115-.09.209-.201.209zM7.798 13H5.983a.205.205 0 0 1-.202-.209V.208c0-.115.09-.208.202-.208h1.815C7.91 0 8 .093 8 .208v12.583c0 .116-.09.209-.202.209zm-2.89-2.086H3.092a.205.205 0 0 1-.201-.208V2.294c0-.115.09-.209.201-.209h1.816c.11 0 .201.094.201.21v8.41c0 .116-.09.21-.201.21zM2.017 8.83H.202A.205.205 0 0 1 0 8.62V4.38c0-.116.09-.209.202-.209h1.815c.111 0 .201.093.201.209v4.24c0 .115-.09.209-.201.209z"/></g></g></svg>