<svg xmlns="http://www.w3.org/2000/svg" width="1610" height="315" viewBox="0 0 1610 315"><defs><clipPath id="mt1sa"><path fill="#fff" d="M126.997 120.372c.006 1.85 12.497 19.37 28.668 59.418 16.396 36.459 36.472 95.445 56.867 97.316 1.293.353 2.559.456 3.798.323 1.24-.132 2.454-.501 3.645-1.09 2.38-1.175 4.665-3.23 6.865-6.001 4.4-5.54 8.463-13.94 12.263-23.696 7.605-19.642 14.115-44.048 20.252-64.437 12.35-41.807 22.985-65.549 42.063-66.445 19.317.435 28.88 23.3 39.835 63.87 5.514 19.8 11.415 43.575 19.656 62.953 8.248 19.31 18.891 33.326 34.117 31.116 30.582-.426 43.571-65.995 51.954-105.759 8.711-43.927 12.815-62.05 33.196-63.706 20.509 1.901 33.807 21.342 44.86 63.677 11.384 38.354 20.524 99.601 40.349 93.167 20.032-2.69 36.065-53.782 49.519-86.514 13.693-35.596 24.807-52.832 40.543-53.93 15.878 1.16 31.12 19.782 45.877 48.647 14.926 26.975 29.365 64.193 47.557 58.903 18.468-3.227 34.644-47.284 47.768-74.153 13.363-29.522 23.674-41.856 35.952-42.865 12.369 1.254 26.717 16.4 42.089 39.472 15.508 21.623 32.04 51.171 51.931 47.77 20.11-2.001 35.139-24.29 47.305-40.585 12.25-17.176 21.637-28.358 32.377-28.481 10.836.82 24.622 14.23 40.698 30.339 16.128 15.581 34.547 33.862 55.834 32.232 21.461-.991 36.48-19.75 48.787-35.278 12.354-16.004 21.998-28.777 33.778-28.798 23.854-.497 50.998 60.915 83.794 61.62 33.237-1.192 62.622-50.44 93.148-49.381 30.643.334 54.68 46.312 94.042 46.478 39.471-.02 56.223-50.925 85.105-50.753 14.436.061 25.4-21.63 32.268-43.347 3.432-10.858 5.837-21.721 7.134-29.87.648-4.074 1.019-7.47 1.103-9.846.021-.594.024-1.125.009-1.587a9.493 9.493 0 0 0-.1-1.172c-.102-.637-.278-.977-.528-.977-2.638.915-291.263-3.017-581.73-6.473-290.102-3.54-582.046-6.601-582.89-5.87A22535.077 22535.077 0 0 1-2 14.709c20.991 22.624 43.474 37.598 65.594 47.458 22.119 11.39 43.874 17.665 63.403 58.205z"/></clipPath><clipPath id="mt1sb"><path fill="#fff" d="M158.02 177s41.01 48 82.019 48c41.009 0 51.011-49 89.02-49 38.008 0 32.006 47 93.02 47 61.013 0 45.01-53 86.019-53 41.008 0 45.01 55 85.018 55 40.009 0 59.013-47 91.02-47s57.013 47 94.02 47c37.009 0 63.015-58 88.02-58 25.006 0 52.012 55 93.02 55 41.01 0 62.014-46 84.019-46 22.005 0 53.012 48 97.021 48 44.01 0 63.014-56 87.02-56 24.005 0 50.01 56 84.018 56 34.007 0 65.014-48 96.02-48 31.008 0 55.013 45 95.022 45 40.009 0 57.012-51 86.019-51 29.006 0 44.01-87 40.008-87-4 0-1161.254-9-1161.254-9L63 47z"/></clipPath><clipPath id="mt1sc"><path fill="#fff" d="M1544.979 128s-41.009 48-82.018 48-51.011-49-89.02-49c-38.008 0-32.006 47-93.02 47-61.013 0-45.01-53-86.019-53-41.009 0-45.01 55-85.018 55-40.01 0-59.013-47-91.02-47s-57.013 47-94.021 47-63.014-58-88.02-58c-25.005 0-52.01 55-93.02 55-41.009 0-62.013-46-84.018-46-22.005 0-53.012 48-97.021 48-44.01 0-63.014-56-87.02-56-24.005 0-50.01 56-84.018 56-34.007 0-65.014-48-96.021-48-31.007 0-55.012 45-95.02 45-40.01 0-57.013-51-86.02-51-29.006 0-44.01-87-40.008-87 4 0 1161.254-9 1161.254-9L1640-2z"/></clipPath><clipPath id="mt1sd"><path fill="#fff" d="M1486.979 143s-41.009 48-82.018 48-51.011-49-89.02-49c-38.008 0-32.006 47-93.02 47-61.013 0-45.01-53-86.019-53-41.009 0-45.01 55-85.018 55-40.01 0-59.013-47-91.02-47s-57.013 47-94.021 47-63.014-58-88.02-58c-25.005 0-52.01 55-93.02 55-41.009 0-62.013-46-84.018-46-22.005 0-53.012 48-97.021 48-44.01 0-63.014-56-87.02-56-24.005 0-50.01 56-84.018 56-34.007 0-65.014-48-96.021-48-31.007 0-55.012 45-95.02 45-40.01 0-57.013-51-86.02-51-29.006 0-44.01-87-40.008-87 4 0 1161.254-9 1161.254-9L1582 13z"/></clipPath></defs><g><g opacity=".1"><path fill="#fff" d="M104.775 135.205c-.577 35.817-1.836 88.921-4.582 179.725L99 315c2.761-90.841 4.027-143.963 4.608-179.788l1.167-.007zm5.914-5.35c-.484 33.33-1.565 82.164-3.972 165.542l-1.19.063c2.422-83.413 3.508-132.261 3.996-165.6l1.166-.005zm5.928-7.206c-.39 31.1-1.303 76.249-3.453 154.433l-1.186.057c2.162-78.217 3.082-123.38 3.473-154.486m7.07-6.732c-.305 29.092-1.069 70.784-2.98 144.01l-1.184.05c1.923-73.255 2.692-114.96 2.999-144.057m7.05-6.303c-.233 27.305-.862 65.768-2.555 134.267l-1.18.046c1.703-68.528 2.335-107.002 2.57-134.31m7.034-5.924c-.173 25.735-.681 61.195-2.172 125.202l-1.178.04c1.5-64.033 2.011-99.503 2.185-125.24m7.03-7.747c-.11 24.615-.495 57.44-1.84 118.963l-1.176.034c1.354-61.547 1.741-94.38 1.852-118.996l1.164-.001zm5.834-3.157c-.082 23.242-.388 53.369-1.526 109.085l-1.175.03c1.146-55.738 1.454-85.87 1.537-109.115h1.164zm5.835-5.08c-.05 22.318-.274 50.11-1.259 102.025l-1.172.026c.991-51.935 1.216-79.732 1.267-102.05m6.993-4.896c-.027 21.603-.18 47.282-1.025 95.623l-1.171.022c.852-48.359 1.005-74.041 1.032-95.645m6.989-4.759c-.012 21.099-.103 44.883-.824 89.875l-1.17.019c.726-45.009.818-68.795.83-89.894m117.481 42.91c-.123 31.256-.424 76.23-1.158 154.63l-1.18.088c.743-78.452 1.048-123.447 1.173-154.713l1.165-.006zm-5.819-1.466c-.123 30.255-.423 73.446-1.157 148.223l-1.179.082c.743-74.826 1.047-118.037 1.171-148.3l1.165-.005zm-5.809-4.024c-.116 29.675-.414 71.932-1.18 146.533l-1.179.078c.775-74.648 1.077-116.924 1.194-146.606m-4.647-3.13c-.106 28.068-.385 67.442-1.116 136.438l-1.177.068c.739-69.038 1.021-108.428 1.129-136.502m-4.642-4.514c-.094 26.907-.353 64.16-1.073 130.153l-1.176.061c.728-66.033.99-103.3 1.084-130.212m-4.644-4.334c-.078 25.38-.31 59.798-.986 120.747l-1.175.052c.684-60.983.917-95.413.997-120.797m-4.64-6.586c-.057 24.276-.25 56.286-.905 114.393l-1.173.044c.66-58.138.856-90.158.914-114.436h1.165zm-5.811-4.189c-.044 23.1-.208 52.69-.817 106.413l-1.172.038c.615-53.751.78-83.35.824-106.45h1.165zm-5.813-5.05c-.03 22.238-.159 49.677-.73 100.031l-1.17.032c.576-50.38.706-77.824.736-100.062m-4.651-4.88c-.017 21.564-.113 47.03-.644 94.182-.39.01-.78.018-1.17.026.536-47.173.632-72.643.65-94.208m-4.654-4.753c-.007 21.085-.07 44.758-.559 88.878l-1.169.02c.494-44.137.556-67.813.564-88.898m-51.215-4.667c-.003 20.801-.043 42.907-.652 84.776l-1.169.015c.613-41.884.654-63.99.656-84.791m6.985-2.084c-.001 20.734-.02 42.153-.572 82.652l-1.168.014c.555-40.513.575-61.932.576-82.666m6.984-1.618c0 20.712-.006 41.628-.511 81.08l-1.168.014c.51-39.466.515-60.382.515-81.094m6.984-.462c0 20.71-.002 41.487-.482 80.6l-1.167.013c.483-39.126.485-59.903.485-80.613m6.984-.23c0 20.708 0 41.418-.459 80.328l-1.167.013c.462-38.923.462-59.633.462-80.342m6.984.924c0 20.713-.007 41.696-.46 81.083l-1.168.014c.457-39.4.464-60.384.464-81.097m6.984 1.387c0 20.734-.017 42.14-.472 82.283l-1.168.015c.46-40.158.476-61.564.476-82.298m6.984 1.157c0 20.765-.025 42.534-.478 83.303l-1.168.016c.457-40.785.481-62.554.482-83.32m6.984 2.322c-.003 20.864-.043 43.394-.509 85.518l-1.168.018c.47-42.14.51-64.672.513-85.536m244.893 57.349c.083 32.195.265 77.403.662 150.986l-1.177.131c-.39-73.654-.57-118.894-.652-151.105l1.167-.012zm-5.847-4.75c.067 30.3.216 72.378.549 140.706l-1.176.115c-.327-68.391-.474-110.499-.54-140.811l1.167-.01zm-5.848-6.53c.051 28.68.171 68.136.453 132.932l-1.175.101c-.277-64.854-.394-104.335-.445-133.025m-4.676-6.204c.037 27.2.132 64.158.367 125.532l-1.173.088c-.231-61.427-.324-98.405-.36-125.615m-4.674-5.897c.027 25.865.099 60.452.293 118.518l-1.173.076c-.19-58.114-.26-92.719-.287-118.59m-4.67-5.621c.018 24.674.071 57.023.228 111.898l-1.172.066c-.153-54.918-.205-87.282-.223-111.962m-4.67-7.468c.01 23.945.047 54.43.175 107.775l-1.171.056c-.124-53.384-.16-83.881-.17-107.83l1.166-.001zm-5.832-3.072c.007 22.746.032 51.028.127 99.884l-1.17.048c-.092-48.892-.117-77.182-.123-99.931l1.166-.001zm-5.832-4.986c.003 22.015.019 48.473.089 94.51l-1.17.04c-.067-46.068-.082-72.533-.086-94.55m-4.665-4.842c.001 21.442.01 46.223.058 89.57l-1.17.034c-.045-43.375-.053-68.16-.054-89.603m-4.665-4.734c0 21.031.004 44.284.034 85.075l-1.169.028c-.027-40.816-.03-64.071-.031-85.103m-115.533 42.894c-.117 31.22-.403 76.108-1.1 154.296l-1.181.09c.705-78.241.995-123.15 1.114-154.38l1.167-.006zm5.841-1.52c-.102 30.138-.353 73.045-.964 147.13l-1.18.085c.62-74.135.873-117.063.977-147.21l1.167-.005zm5.848-4.057c-.085 29.498-.303 71.302-.864 144.734l-1.18.082c.57-73.483.791-115.305.877-144.81m7.01-3.152c-.068 27.851-.247 66.657-.716 134.163l-1.178.073c.476-67.552.658-106.374.727-134.232m7.01-4.511c-.052 26.674-.197 63.279-.6 127.474l-1.177.067c.41-64.238.558-100.858.61-127.538m7.008-4.322c-.038 25.15-.151 58.899-.482 117.88l-1.175.057c.337-59.019.451-92.78.49-117.935m7.007-6.547c-.024 24.087-.106 55.463-.383 111.43l-1.174.05c.283-56.002.366-87.388.391-111.479l1.166-.001zm5.836-4.168c-.016 22.94-.076 51.94-.298 103.471l-1.173.044c.227-51.563.288-80.572.304-103.514l1.167-.001zm5.834-5.025c-.01 22.122-.05 49.056-.228 97.186l-1.172.037c.183-48.159.224-75.099.233-97.223m7-4.862c-.005 21.493-.03 46.561-.171 91.502l-1.17.031c.143-44.966.17-70.039.174-91.533m6.998-4.742c-.002 21.05-.016 44.45-.124 86.414l-1.17.026c.112-41.986.126-65.39.128-86.44m53.644-4.663c0 20.786.001 42.66.016 81.034l-1.168.023c-.013-38.395-.014-60.271-.014-81.057m-4.665-2.083c0 20.73 0 42.037.004 79.422l-1.169.02-.001-79.442m-4.665-1.618c0 20.711 0 41.596-.007 78.248l-1.168.019c.009-36.67.009-57.556.009-78.267m-4.665-.462c0 20.71 0 41.477-.017 77.986l-1.168.019c.02-36.528.02-57.295.02-78.005m-4.666-.23c0 20.708 0 41.418-.027 77.9l-1.168.017c.03-36.5.03-57.209.03-77.918m-4.665.924c0 20.713-.001 41.661-.04 78.708l-1.169.018c.042-37.064.042-58.013.042-78.726m-4.664 1.387c0 20.73-.002 42.055-.055 79.922l-1.168.02c.055-37.886.057-59.211.057-79.942m-4.665 1.156c0 20.76-.004 42.413-.07 80.999l-1.17.02c.07-38.605.073-60.26.074-81.019m-4.665 2.32c0 20.849-.008 43.196-.093 83.167l-1.17.023c.089-39.992.096-62.341.097-83.19m117.194 57.295c.088 32.13.281 77.194.702 150.463l-1.174.13c-.415-73.34-.606-118.436-.693-150.58l1.165-.013zm5.811-4.846c.081 30.114.263 71.78.667 139.186l-1.173.116c-.4-67.47-.578-109.164-.659-139.291l1.165-.01zm5.807-6.57c.07 28.42.238 67.266.631 130.627-.39.035-.78.07-1.171.103-.39-63.42-.555-102.29-.625-130.722m6.972-6.21c.061 26.906.213 63.123.593 122.644l-1.17.09c-.377-59.575-.527-95.814-.587-122.727m6.974-5.879c.05 25.563.185 59.34.55 115.224l-1.17.08c-.36-55.935-.495-89.73-.545-115.3m6.976-5.59c.04 24.394.158 55.915.504 108.36l-1.168.07c-.343-52.492-.46-84.028-.5-108.426m6.974-7.411c.028 23.727.124 53.446.46 104.113l-1.168.06c-.333-50.71-.429-80.442-.456-104.172l1.164-.001zm5.818-3.056c.022 22.55.104 50.106.41 96.261l-1.168.052c-.303-46.194-.385-73.759-.407-96.312l1.165-.001zm5.816-4.955c.014 21.873.079 47.71.362 91.008l-1.166.043c-.282-43.331-.346-69.176-.36-91.05m6.981-4.821c.009 21.354.056 45.646.317 86.273l-1.167.036c-.259-40.657-.305-64.954-.314-86.309m6.983-4.72c.004 20.989.034 43.905.272 82.045l-1.166.03c-.236-38.166-.266-61.086-.27-82.075m117.668 40.643c.148 27.978.507 64.963 1.382 123.895l-1.167.118c-.874-59.002-1.232-96.015-1.38-124.005l1.165-.008zm-5.828-1.3c.137 27.2.47 62.935 1.284 119.507l-1.167.11c-.812-56.637-1.145-92.398-1.281-119.61l1.164-.008zm-5.838-3.627c.12 26.973.428 62.286 1.22 119.035l-1.166.105c-.791-56.814-1.099-92.151-1.219-119.134m-4.668-2.85c.102 25.737.372 59.002 1.078 111.992-.39.03-.778.062-1.167.093-.704-53.047-.973-86.334-1.075-112.08m-4.672-4.159c.084 24.982.318 56.884.968 108.013l-1.166.084c-.649-51.183-.883-83.104-.967-108.093m-4.669-4.045c.067 23.848.262 53.77.835 101.523l-1.166.073c-.572-47.8-.766-77.74-.833-101.593m-4.67-6.24c.045 23.216.198 51.655.717 97.712l-1.166.063c-.517-46.102-.67-74.553-.716-97.774l1.164-.002zm-5.828-4.026c.033 22.33.154 49.062.607 92.161l-1.166.053c-.451-43.138-.572-69.881-.605-92.214h1.164zm-5.826-4.91c.02 21.75.11 47.043.51 87.95l-1.166.044c-.397-40.94-.488-66.242-.508-87.994m-4.66-4.797c.011 21.295.074 45.26.422 84.064l-1.165.038c-.347-38.836-.41-62.806-.42-84.102m-4.659-4.71c.005 20.967.043 43.714.345 80.515l-1.165.031c-.3-36.828-.339-59.578-.344-80.546m-51.217-4.652c0 20.775.015 42.482.229 78.316l-1.165.025c-.213-35.857-.227-57.566-.228-78.34m6.984-2.084c0 20.728.008 41.942.214 76.736l-1.165.023c-.206-34.816-.213-56.031-.213-76.759m6.984-1.617c0 20.711.002 41.567.204 75.56l-1.165.02c-.2-34.013-.203-54.869-.203-75.58m6.984-.462c0 20.71 0 41.467.205 75.163l-1.165.02c-.203-33.716-.204-54.473-.204-75.183m6.984-.23c0 20.708 0 41.418.208 74.915l-1.165.02c-.207-33.517-.207-54.227-.207-74.936m6.984.924c0 20.712.003 41.613.222 75.388l-1.165.022c-.218-33.797-.22-54.698-.22-75.41m6.983 1.386c0 20.727.009 41.921.243 76.167l-1.165.023c-.233-34.268-.241-55.463-.242-76.19m6.984 1.157c.001 20.748.014 42.192.261 76.813l-1.165.024a9737.56 9737.56 0 0 1-.26-76.837m6.985 2.317c.002 20.816.025 42.783.295 78.277l-1.165.027c-.27-35.519-.292-57.488-.294-78.304m245.01 53.21c.222 27.302.707 61.84 1.763 112.157l-1.165.14c-1.057-50.392-1.542-84.965-1.764-112.284l1.166-.013zm-5.863-4.046c.193 26.075.622 58.74 1.578 106.093l-1.165.124c-.957-47.42-1.386-80.117-1.579-106.205l1.166-.012zm-5.87-5.668c.16 25.197.535 56.46 1.416 101.986l-1.165.11c-.882-45.59-1.257-76.88-1.416-102.087m-4.697-5.5c.13 24.385.452 54.296 1.262 98.036l-1.166.097c-.81-43.798-1.133-73.732-1.262-98.128m-4.69-5.335c.101 23.646.376 52.263 1.116 94.256l-1.166.084c-.74-42.046-1.015-70.682-1.117-94.336m-4.684-5.185c.078 22.982.307 50.362.98 90.653l-1.166.073c-.673-40.339-.902-67.736-.98-90.723m-4.685-7.039c.051 22.836.23 49.442.858 89.227-.389.02-.777.042-1.166.063-.627-39.83-.807-66.449-.858-89.289h1.166zm-5.837-2.942c.04 21.89.187 46.99.736 84.022l-1.166.054c-.549-37.071-.696-62.182-.736-84.075l1.166-.001zm-5.838-4.83c.025 21.47.137 45.532.627 81.014l-1.166.045c-.49-35.516-.602-59.587-.627-81.059m-4.67-4.749c.015 21.139.093 44.237.529 78.225l-1.166.038c-.436-34.02-.514-57.123-.528-78.263m-4.667-4.686c.006 20.9.055 43.109.439 75.664l-1.167.032c-.384-32.583-.432-54.796-.438-75.696m-115.349 40.623c.149 27.93.51 64.8 1.393 123.45l-1.169.118c-.88-58.72-1.242-95.617-1.39-123.56l1.166-.008zm5.825-1.375c.14 27.047.483 62.406 1.32 118.059l-1.169.111c-.835-55.719-1.177-91.104-1.318-118.162l1.167-.008zm5.813-3.669c.126 26.739.45 61.449 1.281 116.649l-1.168.106c-.83-55.265-1.153-90-1.279-116.749m6.985-2.878c.11 25.45.399 57.96 1.154 108.974-.39.03-.779.062-1.168.094-.754-51.072-1.042-83.605-1.152-109.062m6.98-4.156c.093 24.673.349 55.716 1.059 104.46l-1.168.085c-.71-48.798-.965-79.861-1.056-104.54m6.983-4.028c.074 23.544.292 52.577.93 97.717l-1.167.074c-.638-45.189-.855-74.238-.929-97.788m6.98-6.19c.053 22.967.227 50.564.817 93.782l-1.167.063c-.59-43.262-.764-70.872-.815-93.843l1.166-.002zm5.824-3.998c.038 22.12.18 48.069.705 88.258l-1.167.054c-.525-40.229-.666-66.189-.704-88.311l1.166-.001zm5.824-4.877c.024 21.598.132 46.221.605 84.174l-1.167.046c-.473-37.988-.58-62.62-.604-84.22m6.992-4.773c.014 21.2.09 44.636.513 80.507l-1.167.038c-.422-35.902-.498-59.344-.512-80.544m6.995-4.697c.006 20.922.054 43.306.428 77.245l-1.167.032a6619.085 6619.085 0 0 1-.427-77.277m53.643-4.646c.002 20.754.024 42.155.36 73.343l-1.167.025c-.335-31.211-.358-52.613-.359-73.368m-4.665-2.082c0 20.722.012 41.788.326 72.444l-1.166.024c-.314-30.68-.326-51.746-.326-72.468m-4.665-1.617c0 20.71.004 41.525.302 71.796l-1.166.022c-.299-30.292-.302-51.107-.302-71.818m-4.664-.462c0 20.71 0 41.454.294 71.691l-1.166.022c-.294-30.259-.295-51.003-.295-71.713m-4.664-.23c0 20.708 0 41.418.29 71.69l-1.166.021c-.29-30.293-.29-51.003-.29-71.712m-4.665.924c0 20.711.004 41.567.303 72.234l-1.167.022c-.298-30.69-.302-51.545-.302-72.256m-4.665 1.386c0 20.723.011 41.81.322 73.033l-1.166.024c-.31-31.247-.322-52.334-.322-73.057m-4.665 1.156c.001 20.74.018 42.031.339 73.753l-1.167.025c-.32-31.746-.337-53.038-.338-73.778m-4.665 2.316c.003 20.796.032 42.52.375 75.157l-1.167.027c-.342-32.662-.371-54.388-.374-75.184m117.585 53.149c.221 27.229.704 61.605 1.759 111.569l-1.163.139c-1.055-50.039-1.538-84.45-1.76-111.695l1.164-.013zm5.787-4.146c.191 25.873.617 58.09 1.565 104.444l-1.163.123c-.949-46.42-1.374-78.669-1.565-104.556l1.163-.011zm5.781-5.711c.158 24.917.527 55.522 1.396 99.505l-1.163.108c-.87-44.044-1.24-74.676-1.397-99.605m6.952-5.505c.127 24.068.444 53.185 1.238 94.936l-1.163.095c-.794-41.808-1.112-70.948-1.238-95.025m6.958-5.315c.1 23.324.367 51.071 1.089 90.727l-1.163.082c-.722-39.707-.99-67.474-1.09-90.805m6.964-5.15c.076 22.68.299 49.175.951 86.866l-1.163.07c-.653-37.737-.876-64.248-.952-86.933m5.801-6.975l1.164-.002c.05 22.602.223 48.388.828 85.31l-1.164.06c-.605-36.964-.778-62.763-.828-85.368zm6.979-2.927c.038 21.682.179 46.005.705 80.149l-1.163.051c-.527-34.181-.668-58.515-.706-80.2h1.163zm5.813-4.798c.024 21.32.13 44.718.598 77.271l-1.164.044a5518.287 5518.287 0 0 1-.598-77.314m6.98-4.726c.013 21.045.087 43.62.5 74.701l-1.163.037c-.414-31.112-.488-53.692-.501-74.737m6.982-4.672c.005 20.853.051 42.704.414 72.426l-1.164.03c-.363-29.748-.409-51.602-.414-72.457m117.654 38.22c.13 24.468.443 52.898 1.208 90.985l-1.16.103c-.768-38.147-1.082-66.603-1.211-91.08l1.163-.008zm-5.825-1.14c.122 23.91.42 51.609 1.147 88.561l-1.161.098c-.729-37.01-1.027-64.733-1.15-88.653l1.164-.006zm-5.835-3.21c.11 24.042.392 51.821 1.117 89.207-.388.03-.775.062-1.162.093-.726-37.442-1.009-65.244-1.119-89.295m-4.666-2.554c.096 23.191.348 49.786 1.008 85.3l-1.161.083c-.662-35.565-.915-62.18-1.011-85.378m-4.67-3.778c.08 22.865.305 48.888.928 83.68l-1.162.076c-.625-34.841-.85-60.88-.93-83.752m-4.668-3.73c.065 22.153.256 47.101.818 80.253l-1.162.066c-.563-33.195-.755-58.158-.82-80.317m-4.67-5.862c.045 22.038.2 46.5.72 79.137-.387.02-.774.038-1.162.057-.522-32.677-.677-57.15-.723-79.192l1.164-.002zm-5.828-3.846c.034 21.468.16 44.996.626 76.184l-1.163.049a5432.476 5432.476 0 0 1-.627-76.232h1.164zm-5.826-4.754c.022 21.2.118 44.073.539 74.313l-1.163.042a5463.638 5463.638 0 0 1-.54-74.354m-4.66-4.703c.013 20.988.08 43.245.458 72.564l-1.163.035c-.378-29.347-.446-51.61-.459-72.6m-4.657-4.662c.005 20.833.047 42.52.384 70.948l-1.164.029c-.336-28.453-.38-50.143-.384-70.976m-51.218-4.635c.001 20.743.022 41.964.337 70.44l-1.164.024c-.315-28.498-.336-49.721-.337-70.464m6.984-2.08c0 20.718.01 41.684.304 69.574l-1.163.022c-.294-27.911-.305-48.878-.305-69.597m6.984-1.617c0 20.71.003 41.494.28 68.925l-1.163.02c-.278-27.451-.28-48.235-.28-68.945m6.983-.462c0 20.71.001 41.443.272 68.676l-1.163.02c-.272-27.253-.273-47.986-.273-68.696m6.984-.23c0 20.708 0 41.418.267 68.504l-1.163.02c-.268-27.106-.268-47.816-.268-68.525m6.984.924c0 20.71.004 41.515.277 68.69l-1.163.02c-.274-27.195-.278-48-.278-68.71m6.985 1.386c0 20.718.01 41.665.293 69.022l-1.164.022c-.283-27.378-.293-48.326-.294-69.044m6.985 1.156c0 20.728.016 41.795.307 69.283l-1.164.023c-.291-27.51-.307-48.578-.307-69.306m6.984 2.313c.002 20.761.028 42.078.337 69.936l-1.163.025c-.31-27.88-.336-49.2-.338-69.961m244.908 49.581c.102 23.013.324 48.195.808 78.11l-1.162.097c-.486-29.968-.71-55.174-.812-78.198l1.166-.009zm-5.844-3.448c.09 22.346.292 46.7.74 75.535l-1.163.086c-.45-28.881-.652-53.258-.743-75.613l1.166-.008zm-5.848-4.922c.077 22.1.256 46.08.678 74.48l-1.162.077a6376.082 6376.082 0 0 1-.681-74.551m-4.68-4.884c.063 21.867.222 45.474.618 73.435l-1.163.068a6347.1 6347.1 0 0 1-.62-73.499m-4.678-4.838c.051 21.648.189 44.886.559 72.402l-1.164.06c-.371-27.554-.51-50.806-.56-72.46m-4.675-4.795c.04 21.447.157 44.322.5 71.389l-1.163.052a6385.885 6385.885 0 0 1-.503-71.44m-4.675-6.65c.027 21.823.12 44.888.448 72.296l-1.164.046c-.329-27.44-.423-50.515-.45-72.34l1.166-.002zm-5.834-2.826c.022 21.105.1 43.282.392 69.448l-1.164.04c-.294-26.196-.372-48.38-.394-69.487h1.166zm-5.834-4.688c.014 20.967.074 42.813.341 68.532l-1.165.034c-.268-25.745-.329-47.597-.342-68.566m-4.667-4.663c.007 20.857.051 42.388.293 67.663l-1.165.029c-.243-25.3-.287-46.834-.295-67.692m-4.665-4.642c.003 20.776.03 42.008.248 66.847l-1.165.023c-.218-24.86-.246-46.094-.25-66.87m-115.362 38.202c.127 24.426.438 52.756 1.195 90.595l-1.163.104c-.759-37.9-1.07-66.255-1.198-90.692l1.166-.007zm5.823-1.205c.118 23.775.406 51.145 1.109 87.293l-1.164.096c-.704-36.205-.992-63.598-1.11-87.382l1.165-.007zm5.815-3.247c.104 23.837.37 51.089 1.053 87.117l-1.163.091c-.685-36.084-.952-63.357-1.056-87.203m6.986-2.578c.089 22.939.32 48.874.928 82.656l-1.164.081c-.609-33.833-.841-59.786-.93-82.733m6.983-3.774c.072 22.595.274 47.865.833 80.569l-1.164.072c-.56-32.75-.762-58.037-.835-80.638m6.986-3.714c.057 21.888.224 46.057.717 76.922l-1.164.063c-.494-30.907-.662-55.09-.72-76.983m6.985-5.817c.039 21.82.17 45.544.616 75.696l-1.164.053a5600.349 5600.349 0 0 1-.619-75.747l1.167-.002zm5.824-3.822c.028 21.284.133 44.126.522 72.767l-1.165.045c-.39-28.673-.495-51.525-.523-72.81l1.166-.002zm5.826-4.725c.018 21.067.095 43.353.438 71.008l-1.165.038c-.343-27.684-.422-49.977-.44-71.046m6.995-4.681c.01 20.904.063 42.7.363 69.45l-1.165.032c-.3-26.776-.355-48.577-.365-69.482m6.996-4.65c.004 20.793.037 42.162.298 68.085l-1.166.026c-.26-25.946-.294-47.318-.298-68.111m53.643-4.63c.001 20.725.014 41.678.208 66.09l-1.165.019c-.195-24.43-.208-45.384-.209-66.11m-4.665-2.08c0 20.715.007 41.552.193 65.821l-1.165.018c-.187-24.287-.194-45.124-.194-65.838m-4.665-1.617c0 20.71.002 41.457.182 65.633l-1.165.017c-.18-24.193-.183-44.94-.183-65.65m-4.664-.462c0 20.71 0 41.432.18 65.64l-1.165.016c-.18-24.224-.182-44.946-.182-65.656m-4.664-.23c0 20.708 0 41.418.182 65.682l-1.165.016c-.183-24.28-.183-44.99-.183-65.699m-4.665.924c0 20.71.003 41.474.194 65.93l-1.165.018c-.192-24.473-.195-45.238-.195-65.948m-4.665 1.386c0 20.714.008 41.567.211 66.28l-1.166.018c-.204-24.73-.21-45.584-.211-66.298m-4.665 1.155c0 20.721.012 41.655.226 66.606l-1.165.02c-.215-24.97-.226-45.905-.227-66.626m-4.665 2.312c.002 20.743.022 41.848.255 67.205l-1.165.022c-.234-25.378-.254-46.484-.256-67.227m117.203 49.542c.1 22.965.317 48.042.79 77.728l-1.16.095a6551.57 6551.57 0 0 1-.793-77.814l1.163-.009zm5.804-3.517c.084 22.21.271 46.263.687 74.424l-1.16.083c-.418-28.207-.606-52.28-.69-74.5l1.163-.007zm5.802-4.952c.068 21.91.226 45.444.599 72.798l-1.16.072a6738.043 6738.043 0 0 1-.603-72.865m6.97-4.887c.053 21.651.186 44.717.518 71.326l-1.16.062a6928.862 6928.862 0 0 1-.522-71.384m6.972-4.824c.041 21.428.15 44.075.446 69.997l-1.161.054a7189.527 7189.527 0 0 1-.448-70.048m6.975-4.773c.03 21.242.12 43.513.38 68.807l-1.162.046a7536.564 7536.564 0 0 1-.382-68.85m6.976-6.609c.02 21.663.087 44.17.323 69.623l-1.162.04c-.237-25.483-.305-47.997-.325-69.662h1.164zm5.818-2.814c.014 20.961.068 42.608.268 66.804l-1.162.033c-.201-24.22-.255-45.873-.27-66.836l1.164-.001zm5.817-4.667c.01 20.865.049 42.257.222 65.977l-1.162.028c-.175-23.741-.215-45.139-.224-66.004m6.983-4.647c.005 20.793.032 41.966.181 65.256l-1.163.023c-.15-23.309-.177-44.486-.182-65.279m6.983-4.632c.002 20.744.018 41.731.146 64.635l-1.163.018c-.128-22.92-.145-43.909-.147-64.653m117.582 36.568c.022 22.072.078 44.664.213 68.524l-1.162.046c-.136-23.887-.192-46.49-.215-68.567l1.164-.003zm-5.82-1.047c.022 21.642.077 43.803.211 67.232l-1.161.044c-.136-23.455-.192-45.627-.214-67.273l1.163-.003zm-5.823-2.935c.021 22.002.076 44.539.216 68.446l-1.162.043c-.141-23.934-.196-46.48-.218-68.487m-4.657-2.356c.019 21.402.07 43.31.203 66.543l-1.162.04c-.134-23.257-.186-45.175-.205-66.58m-4.66-3.516c.018 21.364.065 43.216.196 66.42l-1.162.036c-.132-23.227-.18-45.087-.197-66.454m-4.658-3.511c.014 20.94.056 42.327.178 65.026l-1.162.033c-.124-22.72-.166-44.115-.18-65.058m-4.66-5.592c.011 21.186.046 42.773.164 65.716l-1.162.028c-.12-22.962-.155-44.556-.165-65.744h1.164zm-5.82-3.719c.007 20.84.037 42.031.146 64.536l-1.162.025c-.111-22.523-.14-43.72-.149-64.56l1.164-.001zm-5.822-4.641c.005 20.796.028 41.888.131 64.284l-1.163.022a14497.76 14497.76 0 0 1-.132-64.306m-4.657-4.634c.003 20.76.02 41.752.115 64.034l-1.163.019c-.096-22.298-.113-43.292-.116-64.053m-4.657-4.627c.002 20.732.013 41.626.1 63.789l-1.163.015c-.088-22.176-.1-43.071-.1-63.804m-51.218-4.622c0 20.717.008 41.549.116 64.107l-1.164.015c-.108-22.573-.115-43.405-.116-64.122m6.984-2.08c0 20.712.004 41.481.102 63.861l-1.164.013c-.098-22.392-.102-43.162-.102-63.873m6.984-1.617c0 20.71.001 41.436.091 63.672l-1.163.012c-.09-22.248-.092-42.975-.092-63.684m6.984-.462c0 20.71 0 41.424.086 63.58l-1.163.012c-.086-22.168-.087-42.883-.087-63.592m6.984-.23c0 20.708 0 41.418.082 63.506l-1.163.011c-.083-22.1-.083-42.809-.083-63.518m6.985.924c0 20.71 0 41.439.082 63.51l-1.164.012c-.081-22.083-.083-42.812-.083-63.522m6.985 1.386c0 20.71.003 41.469.084 63.542l-1.163.012c-.082-22.085-.085-42.843-.085-63.554m6.984 1.155c0 20.713.004 41.493.085 63.556l-1.163.012c-.082-22.074-.086-42.855-.086-63.568m6.984 2.31c0 20.72.008 41.546.091 63.642l-1.163.014c-.084-22.108-.092-42.937-.092-63.656M1538 122.803v63.524h-1.166v-63.524H1538zm-5.831-3.222v62.131l-1.166.002v-62.133h1.166zm-5.83-4.619v62.142l-1.166.003v-62.145m-4.666-4.618l.002 62.156-1.166.004-.002-62.16m-4.664-4.619c0 20.713 0 41.433.003 62.172l-1.166.005-.004-62.177m-4.664-4.619c0 20.714.001 41.437.004 62.188l-1.166.006c-.003-20.755-.004-41.48-.004-62.194m-4.665-6.467c0 21.33.001 42.67.005 64.051l-1.166.005c-.004-21.385-.005-42.726-.005-64.056h1.166zm-5.831-2.772c0 20.714.001 41.44.006 62.217l-1.166.005c-.005-20.78-.006-41.508-.006-62.222h1.166zm-5.831-4.62c0 20.713.002 41.44.007 62.227l-1.166.005c-.006-20.79-.007-41.518-.007-62.232m-4.665-4.62c0 20.712.001 41.437.007 62.233l-1.166.005c-.006-20.8-.007-41.525-.007-62.238m-4.665-4.62c0 20.712.001 41.433.007 62.236l-1.165.004c-.007-20.807-.008-41.528-.008-62.24m-115.436 36.561c.022 22.054.074 44.603.203 68.356l-1.164.044c-.13-23.779-.183-46.338-.205-68.397.389 0 .777-.002 1.166-.003zm5.829-1.074c.02 21.583.066 43.6.179 66.68l-1.164.04c-.115-23.103-.162-45.13-.18-66.718l1.165-.002zm5.828-2.952c.016 21.913.056 44.22.161 67.538l-1.164.038c-.106-23.341-.147-45.657-.163-67.574m6.995-2.367c.012 21.293.046 42.915.134 65.395l-1.164.033c-.09-22.5-.123-44.13-.137-65.426m6.995-3.513c.01 21.247.038 42.771.115 65.068l-1.165.028c-.078-22.315-.106-43.846-.116-65.095m6.995-3.504c.007 20.825.03 41.874.093 63.58l-1.165.024c-.065-21.722-.087-42.776-.094-63.603m6.995-5.572c.005 21.091.021 42.359.075 64.221l-1.165.02c-.055-21.877-.071-43.148-.076-64.24l1.166-.001zm5.83-3.709c.003 20.76.015 41.654.06 63.054l-1.165.016c-.046-21.411-.058-42.31-.061-63.07h1.166zm5.83-4.629c.002 20.739.01 41.576.047 62.852l-1.165.013a37833.11 37833.11 0 0 1-.048-62.864m6.997-4.625c0 20.724.006 41.516.036 62.684l-1.165.01c-.03-21.176-.036-41.97-.037-62.694m6.997-4.622c0 20.716.003 41.471.027 62.549l-1.166.008a54703.31 54703.31 0 0 1-.028-62.557m53.644-4.62c0 20.71 0 41.426.008 62.234l-1.166.004c-.007-20.812-.008-41.528-.008-62.238m-4.665-2.078c0 20.71 0 41.422.008 62.242l-1.166.004c-.007-20.824-.008-41.537-.008-62.246m-4.664-1.617c0 20.71 0 41.42.008 62.252l-1.166.004c-.008-20.836-.009-41.547-.009-62.256m-4.664-.462c0 20.71 0 41.42.01 62.269l-1.167.004c-.01-20.854-.01-41.564-.01-62.273m-4.664-.23c0 20.708 0 41.418.01 62.287-.388 0-.777.002-1.165.004-.011-20.873-.011-41.583-.011-62.292m-4.665.924c0 20.71 0 41.421.013 62.317l-1.166.005c-.013-20.9-.013-41.613-.013-62.322m-4.665 1.386c0 20.71 0 41.426.015 62.355l-1.166.006c-.014-20.935-.015-41.652-.015-62.361m-4.665 1.154c0 20.71.001 41.433.018 62.397l-1.166.006c-.017-20.97-.018-41.693-.018-62.402m-4.665 2.31c0 20.71.002 41.446.022 62.458l-1.166.007c-.02-21.019-.022-41.754-.022-62.466"/></g><g opacity=".1"><path fill="#181718" d="M126.997 120.372c.006 1.85 12.497 19.37 28.668 59.418 16.396 36.459 36.472 95.445 56.867 97.316 1.293.353 2.559.456 3.798.323 1.24-.132 2.454-.501 3.645-1.09 2.38-1.175 4.665-3.23 6.865-6.001 4.4-5.54 8.463-13.94 12.263-23.696 7.605-19.642 14.115-44.048 20.252-64.437 12.35-41.807 22.985-65.549 42.063-66.445 19.317.435 28.88 23.3 39.835 63.87 5.514 19.8 11.415 43.575 19.656 62.953 8.248 19.31 18.891 33.326 34.117 31.116 30.582-.426 43.571-65.995 51.954-105.759 8.711-43.927 12.815-62.05 33.196-63.706 20.509 1.901 33.807 21.342 44.86 63.677 11.384 38.354 20.524 99.601 40.349 93.167 20.032-2.69 36.065-53.782 49.519-86.514 13.693-35.596 24.807-52.832 40.543-53.93 15.878 1.16 31.12 19.782 45.877 48.647 14.926 26.975 29.365 64.193 47.557 58.903 18.468-3.227 34.644-47.284 47.768-74.153 13.363-29.522 23.674-41.856 35.952-42.865 12.369 1.254 26.717 16.4 42.089 39.472 15.508 21.623 32.04 51.171 51.931 47.77 20.11-2.001 35.139-24.29 47.305-40.585 12.25-17.176 21.637-28.358 32.377-28.481 10.836.82 24.622 14.23 40.698 30.339 16.128 15.581 34.547 33.862 55.834 32.232 21.461-.991 36.48-19.75 48.787-35.278 12.354-16.004 21.998-28.777 33.778-28.798 23.854-.497 50.998 60.915 83.794 61.62 33.237-1.192 62.622-50.44 93.148-49.381 30.643.334 54.68 46.312 94.042 46.478 39.471-.02 56.223-50.925 85.105-50.753 14.436.061 25.4-21.63 32.268-43.347 3.432-10.858 5.837-21.721 7.134-29.87.648-4.074 1.019-7.47 1.103-9.846.021-.594.024-1.125.009-1.587a9.493 9.493 0 0 0-.1-1.172c-.102-.637-.278-.977-.528-.977-2.638.915-291.263-3.017-581.73-6.473-290.102-3.54-582.046-6.601-582.89-5.87A22535.077 22535.077 0 0 1-2 14.709c20.991 22.624 43.474 37.598 65.594 47.458 22.119 11.39 43.874 17.665 63.403 58.205z"/><path fill="none" stroke="#fff" stroke-dasharray="0 10" stroke-linecap="round" stroke-miterlimit="50" stroke-width="4" d="M126.997 120.372c.006 1.85 12.497 19.37 28.668 59.418 16.396 36.459 36.472 95.445 56.867 97.316 1.293.353 2.559.456 3.798.323 1.24-.132 2.454-.501 3.645-1.09 2.38-1.175 4.665-3.23 6.865-6.001 4.4-5.54 8.463-13.94 12.263-23.696 7.605-19.642 14.115-44.048 20.252-64.437 12.35-41.807 22.985-65.549 42.063-66.445 19.317.435 28.88 23.3 39.835 63.87 5.514 19.8 11.415 43.575 19.656 62.953 8.248 19.31 18.891 33.326 34.117 31.116 30.582-.426 43.571-65.995 51.954-105.759 8.711-43.927 12.815-62.05 33.196-63.706 20.509 1.901 33.807 21.342 44.86 63.677 11.384 38.354 20.524 99.601 40.349 93.167 20.032-2.69 36.065-53.782 49.519-86.514 13.693-35.596 24.807-52.832 40.543-53.93 15.878 1.16 31.12 19.782 45.877 48.647 14.926 26.975 29.365 64.193 47.557 58.903 18.468-3.227 34.644-47.284 47.768-74.153 13.363-29.522 23.674-41.856 35.952-42.865 12.369 1.254 26.717 16.4 42.089 39.472 15.508 21.623 32.04 51.171 51.931 47.77 20.11-2.001 35.139-24.29 47.305-40.585 12.25-17.176 21.637-28.358 32.377-28.481 10.836.82 24.622 14.23 40.698 30.339 16.128 15.581 34.547 33.862 55.834 32.232 21.461-.991 36.48-19.75 48.787-35.278 12.354-16.004 21.998-28.777 33.778-28.798 23.854-.497 50.998 60.915 83.794 61.62 33.237-1.192 62.622-50.44 93.148-49.381 30.643.334 54.68 46.312 94.042 46.478 39.471-.02 56.223-50.925 85.105-50.753 14.436.061 25.4-21.63 32.268-43.347 3.432-10.858 5.837-21.721 7.134-29.87.648-4.074 1.019-7.47 1.103-9.846.021-.594.024-1.125.009-1.587a9.493 9.493 0 0 0-.1-1.172c-.102-.637-.278-.977-.528-.977-2.638.915-291.263-3.017-581.73-6.473-290.102-3.54-582.046-6.601-582.89-5.87A22535.077 22535.077 0 0 1-2 14.709c20.991 22.624 43.474 37.598 65.594 47.458 22.119 11.39 43.874 17.665 63.403 58.205z" clip-path="url(&quot;#mt1sa&quot;)"/></g><g opacity=".3"><path fill="#181718" d="M158.02 177s41.01 48 82.019 48c41.009 0 51.011-49 89.02-49 38.008 0 32.006 47 93.02 47 61.013 0 45.01-53 86.019-53 41.008 0 45.01 55 85.018 55 40.009 0 59.013-47 91.02-47s57.013 47 94.02 47c37.009 0 63.015-58 88.02-58 25.006 0 52.012 55 93.02 55 41.01 0 62.014-46 84.019-46 22.005 0 53.012 48 97.021 48 44.01 0 63.014-56 87.02-56 24.005 0 50.01 56 84.018 56 34.007 0 65.014-48 96.02-48 31.008 0 55.013 45 95.022 45 40.009 0 57.012-51 86.019-51 29.006 0 44.01-87 40.008-87-4 0-1161.254-9-1161.254-9L63 47z"/><path fill="none" stroke="#fff" stroke-dasharray="0 100" stroke-linecap="round" stroke-miterlimit="50" stroke-width="4" d="M158.02 177v0s41.01 48 82.019 48c41.009 0 51.011-49 89.02-49 38.008 0 32.006 47 93.02 47 61.013 0 45.01-53 86.019-53 41.008 0 45.01 55 85.018 55 40.009 0 59.013-47 91.02-47s57.013 47 94.02 47c37.009 0 63.015-58 88.02-58 25.006 0 52.012 55 93.02 55 41.01 0 62.014-46 84.019-46 22.005 0 53.012 48 97.021 48 44.01 0 63.014-56 87.02-56 24.005 0 50.01 56 84.018 56 34.007 0 65.014-48 96.02-48 31.008 0 55.013 45 95.022 45 40.009 0 57.012-51 86.019-51 29.006 0 44.01-87 40.008-87-4 0-1161.254-9-1161.254-9v0L63 47v0z" clip-path="url(&quot;#mt1sb&quot;)"/></g><g opacity=".3"><path fill="#181718" d="M1544.979 128s-41.009 48-82.018 48-51.011-49-89.02-49c-38.008 0-32.006 47-93.02 47-61.013 0-45.01-53-86.019-53-41.009 0-45.01 55-85.018 55-40.01 0-59.013-47-91.02-47s-57.013 47-94.021 47-63.014-58-88.02-58c-25.005 0-52.01 55-93.02 55-41.009 0-62.013-46-84.018-46-22.005 0-53.012 48-97.021 48-44.01 0-63.014-56-87.02-56-24.005 0-50.01 56-84.018 56-34.007 0-65.014-48-96.021-48-31.007 0-55.012 45-95.02 45-40.01 0-57.013-51-86.02-51-29.006 0-44.01-87-40.008-87 4 0 1161.254-9 1161.254-9L1640-2z"/><path fill="none" stroke="#fff" stroke-dasharray="0 100" stroke-linecap="round" stroke-miterlimit="50" stroke-width="4" d="M1544.979 128v0s-41.009 48-82.018 48-51.011-49-89.02-49c-38.008 0-32.006 47-93.02 47-61.013 0-45.01-53-86.019-53-41.009 0-45.01 55-85.018 55-40.01 0-59.013-47-91.02-47s-57.013 47-94.021 47-63.014-58-88.02-58c-25.005 0-52.01 55-93.02 55-41.009 0-62.013-46-84.018-46-22.005 0-53.012 48-97.021 48-44.01 0-63.014-56-87.02-56-24.005 0-50.01 56-84.018 56-34.007 0-65.014-48-96.021-48-31.007 0-55.012 45-95.02 45-40.01 0-57.013-51-86.02-51-29.006 0-44.01-87-40.008-87 4 0 1161.254-9 1161.254-9v0L1640-2v0z" clip-path="url(&quot;#mt1sc&quot;)"/></g><g opacity=".2"><path fill="#0f0e0f" d="M1486.979 143s-41.009 48-82.018 48-51.011-49-89.02-49c-38.008 0-32.006 47-93.02 47-61.013 0-45.01-53-86.019-53-41.009 0-45.01 55-85.018 55-40.01 0-59.013-47-91.02-47s-57.013 47-94.021 47-63.014-58-88.02-58c-25.005 0-52.01 55-93.02 55-41.009 0-62.013-46-84.018-46-22.005 0-53.012 48-97.021 48-44.01 0-63.014-56-87.02-56-24.005 0-50.01 56-84.018 56-34.007 0-65.014-48-96.021-48-31.007 0-55.012 45-95.02 45-40.01 0-57.013-51-86.02-51-29.006 0-44.01-87-40.008-87 4 0 1161.254-9 1161.254-9L1582 13z"/><path fill="none" stroke="#fff" stroke-linecap="round" stroke-linejoin="round" stroke-miterlimit="50" stroke-width="4" d="M1486.979 143v0s-41.009 48-82.018 48-51.011-49-89.02-49c-38.008 0-32.006 47-93.02 47-61.013 0-45.01-53-86.019-53-41.009 0-45.01 55-85.018 55-40.01 0-59.013-47-91.02-47s-57.013 47-94.021 47-63.014-58-88.02-58c-25.005 0-52.01 55-93.02 55-41.009 0-62.013-46-84.018-46-22.005 0-53.012 48-97.021 48-44.01 0-63.014-56-87.02-56-24.005 0-50.01 56-84.018 56-34.007 0-65.014-48-96.021-48-31.007 0-55.012 45-95.02 45-40.01 0-57.013-51-86.02-51-29.006 0-44.01-87-40.008-87 4 0 1161.254-9 1161.254-9v0L1582 13v0z" clip-path="url(&quot;#mt1sd&quot;)"/></g></g></svg>