<svg xmlns="http://www.w3.org/2000/svg" width="14" height="43" viewBox="0 0 14 43"><g><g><path fill="#e0c876" d="M11.38 26.991h-.123l-.928 14.147c0 1.028-.784 1.862-1.75 1.862H5.426c-.967 0-1.75-.834-1.75-1.862l-.929-14.147h-.122C1.176 26.991 0 25.741 0 24.2v-9.494c0-1.542 1.176-2.916 2.626-3.35 0 0 1.427-.482 3.116-.67l1.26 1.042 1.004-1.067c1.77.167 3.374.695 3.374.695 1.42.527 2.626 1.808 2.626 3.35V24.2c0 1.542-1.176 2.792-2.626 2.792zm1.05-11.494c0-1.012-.331-1.837-2.582-2.757 0 0-1.043-.16-2.193-.27l-.652.7-.82-.684c-1.098.124-2.025.254-2.025.254-1.891.642-2.582 1.745-2.582 2.757v8.278c0 1.012 1.64 1.832 2.582 1.832h.08l.778 14.496c0 .675.51 1.222 1.138 1.222h1.698c.628 0 1.138-.547 1.138-1.222l.778-14.496h.08c.942 0 2.582-.82 2.582-1.832zm-5.427-6.19c-2.418 0-4.377-2.083-4.377-4.653C2.626 2.084 4.586 0 7.003 0s4.377 2.083 4.377 4.654c0 2.57-1.96 4.653-4.377 4.653zm0-7.632c-1.547 0-2.801 1.334-2.801 2.979 0 1.644 1.254 2.978 2.8 2.978 1.548 0 2.802-1.334 2.802-2.978 0-1.645-1.254-2.979-2.801-2.979z"/></g></g></svg>