<svg xmlns="http://www.w3.org/2000/svg" width="12" height="20" viewBox="0 0 12 20"><g><g ><path fill="#fff" d="M10.222 20H1.778C.796 20 0 19.23 0 18.283V1.717C0 .77.796 0 1.778 0h8.444C11.204 0 12 .769 12 1.717v16.566C12 19.23 11.204 20 10.222 20zm0-17.424c0-.474-.398-.859-.889-.859H2.667c-.491 0-.89.385-.89.859v14.848c0 .474.399.859.89.859h6.666c.491 0 .89-.385.89-.859zm-3.08 14.518h-2.19a.859.859 0 0 1-.858-.859v-.001c0-.475.384-.859.858-.859h2.19c.474 0 .858.384.858.859v.001a.859.859 0 0 1-.859.859zM6 5.066c-.614 0-1.111-.48-1.111-1.074C4.889 3.4 5.386 2.92 6 2.92s1.111.48 1.111 1.073S6.614 5.066 6 5.066z"/></g></g></svg>