<svg xmlns="http://www.w3.org/2000/svg" width="32" height="40" viewBox="0 0 32 40"><g><g><path fill="#e0c876" d="M5.909 31.717c.154-.565.154-.873.154-1.724-.09-5.247-4.446-9.387-4.446-14.372.715-12.37 10.608-13.831 13.728-13.71 1.915 0 10.992.698 11.802 10.702-.02.883-.121 1.217-.086 1.815.1 1.625 2.355 5.254 2.553 5.715.199.461.59.666.681 1.361.096.732-.54.762-1.532 1.18-.305.143-1.115.456-1.072 1.393.042.84.45.808.392 1.147-.037.263-.234.196-.256.635-.02.544.085.816.085.816s-.774.112-.738 1.477c-.006.624.155 1.231.155 1.231s.693 2.342-4.437 3.098c-4.872.472-5.48 1.78-7.149 4.9-.462.873-.34 2.54-.34 2.54s1.085.408 1.447-.636c1.84-3.447 1.265-4.558 6.637-5.08 6.18-1.123 5.617-4.445 5.617-4.445s.085-.817-.17-1.361c.595-.386.765-1.361.765-1.361l.086-.998s.106-.17.17-.544c.064-.374-.17-.998-.17-.998s.173-.204.51-.363c1.305-.544 1.674-1.724 1.702-2.54.029-.817-.17-1.18-.17-1.18l-3.064-5.987s.15-.84.17-1.815C27.807-.564 15.234.003 15.234.003S.85-.237 0 15.153c.106 6.873 4.297 10.524 4.34 14.879 0 .941 0 1.281-.17 1.905-.479 1.315.255 1.905.255 1.905s1.246-1.405 1.484-2.125z"/></g></g></svg>