<svg xmlns="http://www.w3.org/2000/svg" width="18" height="13" viewBox="0 0 18 13"><g><g ><path fill="#fff" d="M16.831 13H1.17c-.646 0-1.17-.567-1.17-1.266V1.266C0 .566.524 0 1.17 0H16.83C17.476 0 18 .567 18 1.266v10.468C18 12.433 17.476 13 16.83 13zm-.564-10.54c0-.327-.245-.592-.546-.592H2.28c-.302 0-.546.265-.546.591v8.082c0 .326.244.59.546.59H15.72c.301 0 .546-.264.546-.59zm-2.452 7.683l-1.57-1.168c-.42-.255-.565-.82-.322-1.261a.856.856 0 0 1 1.2-.338l1.57 1.168c.42.255.564.82.322 1.261a.856.856 0 0 1-1.2.338zM9.567 7.676a.826.826 0 0 1-.55.101.827.827 0 0 1-.549-.1l-4.3-3.053a.948.948 0 0 1-.322-1.261.858.858 0 0 1 1.203-.338l3.969 2.817 3.968-2.817a.858.858 0 0 1 1.202.338c.243.442.099 1.006-.322 1.261zm-3.482.02a.948.948 0 0 1-.322 1.261l-1.575 1.168a.858.858 0 0 1-1.202-.337.948.948 0 0 1 .322-1.261l1.575-1.169a.858.858 0 0 1 1.202.338z"/></g></g></svg>