<svg xmlns="http://www.w3.org/2000/svg" width="35" height="35" viewBox="0 0 35 35"><defs><mask id="56h1b" width="2" height="2" x="-1" y="-1"><path fill="#fff" d="M6 6h23v20H6z"/><path d="M18.005 12.801l4.838 2.532c.22.118.346.345.345.58a.64.64 0 0 1 .03.196v5.47a.638.638 0 0 1-.146.407.647.647 0 0 1-.247.232l-4.83 2.529a.639.639 0 0 1-.43.063.64.64 0 0 1-.411-.067L12.306 22.2a.659.659 0 0 1-.337-.69v-5.402c0-.018 0-.035.002-.053a.664.664 0 0 1 .335-.706l4.856-2.544a.642.642 0 0 1 .411-.067.64.64 0 0 1 .432.062zm3.933 8.41v-4.216l-3.75 1.964v4.216zM13.25 17.01v4.21l3.625 1.9v-4.21zm7.916-1.08l-3.572-1.87-3.577 1.874 3.568 1.87zm3.146 6.07c.415 0 .75.344.75.767a.758.758 0 0 1-.75.765.758.758 0 0 1-.75-.765c0-.423.336-.766.75-.766zm1.938 1.251a.75.75 0 1 1 0 1.5.75.75 0 0 1 0-1.5zm2 1.25a.75.75 0 1 1 0 1.5.75.75 0 0 1 0-1.5zM10.687 22c.415 0 .75.343.75.766a.758.758 0 0 1-.75.765.758.758 0 0 1-.75-.765c0-.423.336-.766.75-.766zM8.75 23.25a.75.75 0 1 1 0 1.5.75.75 0 0 1 0-1.5zm-2 1.25a.75.75 0 1 1 0 1.5.75.75 0 0 1 0-1.5zM16.939 6.377a.741.741 0 0 1 1.017-.275.756.756 0 0 1 .273 1.027.742.742 0 0 1-1.018.275.755.755 0 0 1-.272-1.027zm-.036 2.32a.741.741 0 0 1 1.018-.275.755.755 0 0 1 .273 1.027.741.741 0 0 1-1.018.275.756.756 0 0 1-.273-1.027zm-.003 2.376a.742.742 0 0 1 1.018-.275.756.756 0 0 1 .273 1.027.741.741 0 0 1-1.018.275.755.755 0 0 1-.273-1.027z"/></mask><filter id="56h1a" width="73" height="70" x="-19" y="-19" filterUnits="userSpaceOnUse"><feOffset in="SourceGraphic" result="FeOffset1126Out"/><feGaussianBlur in="FeOffset1126Out" result="FeGaussianBlur1127Out" stdDeviation="6 6"/></filter></defs><g><g><g filter="url(#56h1a)"><path fill="none" d="M18.005 12.801l4.838 2.532c.22.118.346.345.345.58a.64.64 0 0 1 .03.196v5.47a.638.638 0 0 1-.146.407.647.647 0 0 1-.247.232l-4.83 2.529a.639.639 0 0 1-.43.063.64.64 0 0 1-.411-.067L12.306 22.2a.659.659 0 0 1-.337-.69v-5.402c0-.018 0-.035.002-.053a.664.664 0 0 1 .335-.706l4.856-2.544a.642.642 0 0 1 .411-.067.64.64 0 0 1 .432.062zm3.933 8.41v-4.216l-3.75 1.964v4.216zM13.25 17.01v4.21l3.625 1.9v-4.21zm7.916-1.08l-3.572-1.87-3.577 1.874 3.568 1.87zm3.146 6.07c.415 0 .75.344.75.767a.758.758 0 0 1-.75.765.758.758 0 0 1-.75-.765c0-.423.336-.766.75-.766zm1.938 1.251a.75.75 0 1 1 0 1.5.75.75 0 0 1 0-1.5zm2 1.25a.75.75 0 1 1 0 1.5.75.75 0 0 1 0-1.5zM10.687 22c.415 0 .75.343.75.766a.758.758 0 0 1-.75.765.758.758 0 0 1-.75-.765c0-.423.336-.766.75-.766zM8.75 23.25a.75.75 0 1 1 0 1.5.75.75 0 0 1 0-1.5zm-2 1.25a.75.75 0 1 1 0 1.5.75.75 0 0 1 0-1.5zM16.939 6.377a.741.741 0 0 1 1.017-.275.756.756 0 0 1 .273 1.027.742.742 0 0 1-1.018.275.755.755 0 0 1-.272-1.027zm-.036 2.32a.741.741 0 0 1 1.018-.275.755.755 0 0 1 .273 1.027.741.741 0 0 1-1.018.275.756.756 0 0 1-.273-1.027zm-.003 2.376a.742.742 0 0 1 1.018-.275.756.756 0 0 1 .273 1.027.741.741 0 0 1-1.018.275.755.755 0 0 1-.273-1.027z" mask="url(&quot;#56h1b&quot;)"/><path fill="#17ddff" fill-opacity=".7" d="M18.005 12.801l4.838 2.532c.22.118.346.345.345.58a.64.64 0 0 1 .03.196v5.47a.638.638 0 0 1-.146.407.647.647 0 0 1-.247.232l-4.83 2.529a.639.639 0 0 1-.43.063.64.64 0 0 1-.411-.067L12.306 22.2a.659.659 0 0 1-.337-.69v-5.402c0-.018 0-.035.002-.053a.664.664 0 0 1 .335-.706l4.856-2.544a.642.642 0 0 1 .411-.067.64.64 0 0 1 .432.062zm3.933 8.41v-4.216l-3.75 1.964v4.216zM13.25 17.01v4.21l3.625 1.9v-4.21zm7.916-1.08l-3.572-1.87-3.577 1.874 3.568 1.87zm3.146 6.07c.415 0 .75.344.75.767a.758.758 0 0 1-.75.765.758.758 0 0 1-.75-.765c0-.423.336-.766.75-.766zm1.938 1.251a.75.75 0 1 1 0 1.5.75.75 0 0 1 0-1.5zm2 1.25a.75.75 0 1 1 0 1.5.75.75 0 0 1 0-1.5zM10.687 22c.415 0 .75.343.75.766a.758.758 0 0 1-.75.765.758.758 0 0 1-.75-.765c0-.423.336-.766.75-.766zM8.75 23.25a.75.75 0 1 1 0 1.5.75.75 0 0 1 0-1.5zm-2 1.25a.75.75 0 1 1 0 1.5.75.75 0 0 1 0-1.5zM16.939 6.377a.741.741 0 0 1 1.017-.275.756.756 0 0 1 .273 1.027.742.742 0 0 1-1.018.275.755.755 0 0 1-.272-1.027zm-.036 2.32a.741.741 0 0 1 1.018-.275.755.755 0 0 1 .273 1.027.741.741 0 0 1-1.018.275.756.756 0 0 1-.273-1.027zm-.003 2.376a.742.742 0 0 1 1.018-.275.756.756 0 0 1 .273 1.027.741.741 0 0 1-1.018.275.755.755 0 0 1-.273-1.027z"/></g><g filter="url(#56h1a)"><path fill="none" d="M18.005 12.801l4.838 2.532c.22.118.346.345.345.58a.64.64 0 0 1 .03.196v5.47a.638.638 0 0 1-.146.407.647.647 0 0 1-.247.232l-4.83 2.529a.639.639 0 0 1-.43.063.64.64 0 0 1-.411-.067L12.306 22.2a.659.659 0 0 1-.337-.69v-5.402c0-.018 0-.035.002-.053a.664.664 0 0 1 .335-.706l4.856-2.544a.642.642 0 0 1 .411-.067.64.64 0 0 1 .432.062zm3.933 8.41v-4.216l-3.75 1.964v4.216zM13.25 17.01v4.21l3.625 1.9v-4.21zm7.916-1.08l-3.572-1.87-3.577 1.874 3.568 1.87zm3.146 6.07c.415 0 .75.344.75.767a.758.758 0 0 1-.75.765.758.758 0 0 1-.75-.765c0-.423.336-.766.75-.766zm1.938 1.251a.75.75 0 1 1 0 1.5.75.75 0 0 1 0-1.5zm2 1.25a.75.75 0 1 1 0 1.5.75.75 0 0 1 0-1.5zM10.687 22c.415 0 .75.343.75.766a.758.758 0 0 1-.75.765.758.758 0 0 1-.75-.765c0-.423.336-.766.75-.766zM8.75 23.25a.75.75 0 1 1 0 1.5.75.75 0 0 1 0-1.5zm-2 1.25a.75.75 0 1 1 0 1.5.75.75 0 0 1 0-1.5zM16.939 6.377a.741.741 0 0 1 1.017-.275.756.756 0 0 1 .273 1.027.742.742 0 0 1-1.018.275.755.755 0 0 1-.272-1.027zm-.036 2.32a.741.741 0 0 1 1.018-.275.755.755 0 0 1 .273 1.027.741.741 0 0 1-1.018.275.756.756 0 0 1-.273-1.027zm-.003 2.376a.742.742 0 0 1 1.018-.275.756.756 0 0 1 .273 1.027.741.741 0 0 1-1.018.275.755.755 0 0 1-.273-1.027z" mask="url(&quot;#56h1b&quot;)"/><path fill="#17ddff" fill-opacity=".7" d="M18.005 12.801l4.838 2.532c.22.118.346.345.345.58a.64.64 0 0 1 .03.196v5.47a.638.638 0 0 1-.146.407.647.647 0 0 1-.247.232l-4.83 2.529a.639.639 0 0 1-.43.063.64.64 0 0 1-.411-.067L12.306 22.2a.659.659 0 0 1-.337-.69v-5.402c0-.018 0-.035.002-.053a.664.664 0 0 1 .335-.706l4.856-2.544a.642.642 0 0 1 .411-.067.64.64 0 0 1 .432.062zm3.933 8.41v-4.216l-3.75 1.964v4.216zM13.25 17.01v4.21l3.625 1.9v-4.21zm7.916-1.08l-3.572-1.87-3.577 1.874 3.568 1.87zm3.146 6.07c.415 0 .75.344.75.767a.758.758 0 0 1-.75.765.758.758 0 0 1-.75-.765c0-.423.336-.766.75-.766zm1.938 1.251a.75.75 0 1 1 0 1.5.75.75 0 0 1 0-1.5zm2 1.25a.75.75 0 1 1 0 1.5.75.75 0 0 1 0-1.5zM10.687 22c.415 0 .75.343.75.766a.758.758 0 0 1-.75.765.758.758 0 0 1-.75-.765c0-.423.336-.766.75-.766zM8.75 23.25a.75.75 0 1 1 0 1.5.75.75 0 0 1 0-1.5zm-2 1.25a.75.75 0 1 1 0 1.5.75.75 0 0 1 0-1.5zM16.939 6.377a.741.741 0 0 1 1.017-.275.756.756 0 0 1 .273 1.027.742.742 0 0 1-1.018.275.755.755 0 0 1-.272-1.027zm-.036 2.32a.741.741 0 0 1 1.018-.275.755.755 0 0 1 .273 1.027.741.741 0 0 1-1.018.275.756.756 0 0 1-.273-1.027zm-.003 2.376a.742.742 0 0 1 1.018-.275.756.756 0 0 1 .273 1.027.741.741 0 0 1-1.018.275.755.755 0 0 1-.273-1.027z"/></g><path fill="#17ddff" d="M18.005 12.801l4.838 2.532c.22.118.346.345.345.58a.64.64 0 0 1 .03.196v5.47a.638.638 0 0 1-.146.407.647.647 0 0 1-.247.232l-4.83 2.529a.639.639 0 0 1-.43.063.64.64 0 0 1-.411-.067L12.306 22.2a.659.659 0 0 1-.337-.69v-5.402c0-.018 0-.035.002-.053a.664.664 0 0 1 .335-.706l4.856-2.544a.642.642 0 0 1 .411-.067.64.64 0 0 1 .432.062zm3.933 8.41v-4.216l-3.75 1.964v4.216zM13.25 17.01v4.21l3.625 1.9v-4.21zm7.916-1.08l-3.572-1.87-3.577 1.874 3.568 1.87zm3.146 6.07c.415 0 .75.344.75.767a.758.758 0 0 1-.75.765.758.758 0 0 1-.75-.765c0-.423.336-.766.75-.766zm1.938 1.251a.75.75 0 1 1 0 1.5.75.75 0 0 1 0-1.5zm2 1.25a.75.75 0 1 1 0 1.5.75.75 0 0 1 0-1.5zM10.687 22c.415 0 .75.343.75.766a.758.758 0 0 1-.75.765.758.758 0 0 1-.75-.765c0-.423.336-.766.75-.766zM8.75 23.25a.75.75 0 1 1 0 1.5.75.75 0 0 1 0-1.5zm-2 1.25a.75.75 0 1 1 0 1.5.75.75 0 0 1 0-1.5zM16.939 6.377a.741.741 0 0 1 1.017-.275.756.756 0 0 1 .273 1.027.742.742 0 0 1-1.018.275.755.755 0 0 1-.272-1.027zm-.036 2.32a.741.741 0 0 1 1.018-.275.755.755 0 0 1 .273 1.027.741.741 0 0 1-1.018.275.756.756 0 0 1-.273-1.027zm-.003 2.376a.742.742 0 0 1 1.018-.275.756.756 0 0 1 .273 1.027.741.741 0 0 1-1.018.275.755.755 0 0 1-.273-1.027z"/></g></g></svg>