<svg xmlns="http://www.w3.org/2000/svg" width="16" height="18" viewBox="0 0 16 18"><g><g><path fill="#fff" d="M13.217 16.302c.917.335 2.597.63 2.597.63s.419.863 0 1.08c-.251.085-1.639-.143-3.267-.747-1.852-.385-2.198-1.984-2.198-1.984l.043-1.893s-.099-.399.168-.551c.759-.382 1.089-1.812 1.089-1.812s-.076-.426.167-.472c.634-.06.586-.551.586-.551s.246-1.142.335-1.418c.09-.276.226-.8-.083-.709-.309.092-.463-.079-.463-.079v-.708s.16-.31.168-1.024c-.258-2.927-2.317-4.862-4.361-4.862-2.044 0-4.101 1.935-4.359 4.863.007.714.168 1.024.168 1.024v.708s-.154.17-.462.08c-.309-.092-.173.432-.084.708.089.276.335 1.418.335 1.418s-.047.492.586.551c.242.047.167.473.167.473s.33 1.43 1.088 1.811c.266.153.167.552.167.552l.044 1.893s-.346 1.6-2.197 1.984c-1.627.604-3.013.832-3.264.747-.418-.217 0-1.08 0-1.08s1.679-.294 2.594-.63c.916-.336 1.452-.508 1.59-1.26-.007-.004 0-1.418 0-1.418s-1.1-.987-1.255-2.284c-.455-.215-.605-.271-.753-.788-.148-.516-.418-1.654-.418-1.654s-.361-1.558.418-1.811c-.022.027 0-.99 0-1.497 0-.86.483-5.208 5.574-5.583V.003L7.94 0 7.96 0h.015V0h.047l.015.001L8.054 0c.002 0 .003.002.004.003v.006c5.095.374 5.578 4.723 5.578 5.582 0 .507.022 1.524 0 1.497.78.253.42 1.81.42 1.81s-.271 1.138-.42 1.655c-.148.516-.298.573-.754.787-.155 1.297-1.256 2.284-1.256 2.284s.008 1.414 0 1.418c.139.752.675.924 1.591 1.26z"/></g></g></svg>