<?xml version="1.0" encoding="utf-8"?>
<!-- Generator: Adobe Illustrator 23.0.5, SVG Export Plug-In . SVG Version: 6.00 Build 0)  -->
<svg version="1.1" id="Слой_1" xmlns="http://www.w3.org/2000/svg" xmlns:xlink="http://www.w3.org/1999/xlink" x="0px" y="0px"
	 viewBox="0 0 11 13.3" style="enable-background:new 0 0 11 13.3;" xml:space="preserve">
<style type="text/css">
	.st0{fill:#17DDFF;}
</style>
<path class="st0" d="M6.1,12.1c0,0.4-0.3,0.6-0.6,0.6c-0.4,0-0.6-0.3-0.6-0.6l0,0V3.6L2.1,6.5c-0.2,0.3-0.6,0.3-0.9,0c0,0,0,0,0,0
	c-0.3-0.3-0.3-0.7,0-1L5,1.5c0.1-0.1,0.3-0.2,0.5-0.2c0.2,0,0.3,0.1,0.5,0.2l3.9,4.1c0.3,0.3,0.3,0.7,0,1c-0.2,0.3-0.6,0.3-0.9,0
	c0,0,0,0,0,0l-2.8-3V12.1z"/>
</svg>
