<svg xmlns="http://www.w3.org/2000/svg" width="153" height="45" viewBox="0 0 153 45"><g><g><g><path fill="#fff" d="M0 .75h152.562v44H0zm1.156 42.875h150.219V1.937H1.156z"/></g><g><path fill="#fff" d="M14.805 20.881h-1.858v-7.925l-1.176 4.21h-1.436l-1.157-4.21v7.925H7.32V9.169h2.208l1.525 5.295 1.526-5.295h2.226zm14.445 0h-7.485V9.169h7.485v1.67h-5.627v3.248h4.388v1.67h-4.388v3.455h5.627zm15.046 0h-2.352l-3.033-4.739h-.844v4.739H36.21V9.169h3.859c1.286 0 2.285.295 2.997.884.712.59 1.068 1.461 1.068 2.616 0 .515-.08.968-.238 1.36a2.904 2.904 0 0 1-.673 1.01c-.29.28-.628.504-1.014.668a4.784 4.784 0 0 1-1.252.336zm-2.02-8.248c0-.598-.195-1.047-.587-1.346-.392-.3-.932-.449-1.62-.449h-2.002v3.617h2.002c.688 0 1.228-.15 1.62-.449.392-.299.588-.757.588-1.373zm15.863 8.248h-7.484V9.169h1.857v10.043h5.627zm13.539 0H66.06v-1.67h1.849v-8.373h-1.85V9.17h5.619v1.67h-1.912v8.373h1.912zm15.351 0h-2.154l-3.473-8.49v8.49h-1.858V9.169h2.334l3.293 8.068V9.17h1.858zm14.445-10.043h-5.627v3.25h4.389v1.668h-4.389v5.125H93.99V9.169h7.485zm13.485 10.043l-.844-2.791h-3.877l-.825 2.791h-1.948l3.653-11.712h2.136l3.652 11.712zm-4.227-4.434h2.89l-1.436-4.828zm20.26.862a7.274 7.274 0 0 1-.574 1.561c-.24.466-.531.864-.875 1.19-.344.328-.745.581-1.203.76-.457.178-.982.267-1.575.267-.82 0-1.514-.169-2.083-.507a4.189 4.189 0 0 1-1.399-1.355 5.873 5.873 0 0 1-.784-1.938 10.559 10.559 0 0 1-.239-2.267c0-.783.08-1.54.238-2.27.159-.73.416-1.373.773-1.93a4.222 4.222 0 0 1 1.361-1.341c.551-.338 1.226-.508 2.022-.508.258 0 .518.033.782.1.264.065.51.165.737.3.228.134.427.3.597.498.171.197.293.425.365.682V9.17h1.669v4.433h-1.67a4.41 4.41 0 0 0-.134-1.081 2.768 2.768 0 0 0-.43-.947 2.37 2.37 0 0 0-.746-.673c-.299-.173-.652-.26-1.059-.26-.526 0-.957.129-1.292.386a2.79 2.79 0 0 0-.808 1.015 4.95 4.95 0 0 0-.426 1.41 10.25 10.25 0 0 0 0 3.154c.08.527.22.999.417 1.415.198.416.467.753.808 1.01.341.258.775.387 1.301.387.76 0 1.345-.242 1.755-.727.41-.485.737-1.137.982-1.956zm13.817 3.572h-7.485V9.169h7.485v1.67h-5.627v3.248h4.389v1.67h-4.39v3.455h5.628z"/></g><g><path fill="#fff" d="M110.285 35.949h-1.508V34.44h1.508zm9.339-2.382c-.096.383-.224.73-.383 1.041a2.93 2.93 0 0 1-.584.794c-.229.218-.496.387-.801.506a2.876 2.876 0 0 1-1.05.178c-.547 0-1.01-.113-1.389-.338a2.79 2.79 0 0 1-.932-.903 3.912 3.912 0 0 1-.524-1.293 7.04 7.04 0 0 1-.159-1.51c0-.523.053-1.027.159-1.514a3.9 3.9 0 0 1 .515-1.287c.238-.37.54-.669.908-.894.367-.225.817-.338 1.348-.338.171 0 .345.022.52.066.177.044.34.11.492.2.152.09.285.2.398.332.114.132.195.284.243.455v-.921h1.113v2.955h-1.113c0-.243-.03-.483-.09-.72a1.845 1.845 0 0 0-.287-.632 1.58 1.58 0 0 0-.496-.449 1.382 1.382 0 0 0-.706-.173c-.351 0-.639.086-.862.257a1.86 1.86 0 0 0-.538.677c-.136.28-.23.593-.285.94a6.835 6.835 0 0 0 0 2.103c.054.351.147.666.279.943.131.277.31.502.538.674.227.172.517.257.868.257.506 0 .896-.161 1.17-.484.272-.323.49-.758.654-1.305zm6.671-1.525c0-.523.056-1.027.168-1.514.111-.487.285-.916.52-1.287.235-.37.544-.669.925-.894.38-.225.84-.338 1.379-.338.538 0 .998.113 1.379.338.38.225.69.524.93.894.24.371.413.8.52 1.287.108.487.162.991.162 1.514 0 .522-.054 1.026-.161 1.51-.108.485-.28.916-.515 1.293a2.688 2.688 0 0 1-.924.903c-.381.225-.845.338-1.391.338-.547 0-1.01-.113-1.391-.338a2.712 2.712 0 0 1-.928-.903 4.002 4.002 0 0 1-.514-1.293 7.071 7.071 0 0 1-.159-1.51zm1.239.003c0 .35.027.702.08 1.054.054.351.146.666.276.943.13.277.307.502.532.674.225.172.514.257.865.257.35 0 .639-.085.864-.257.226-.172.403-.397.533-.674a3.46 3.46 0 0 0 .275-.943 6.95 6.95 0 0 0 0-2.103 3.502 3.502 0 0 0-.275-.94c-.13-.28-.31-.505-.539-.677-.23-.171-.515-.257-.858-.257-.57 0-1.006.257-1.305.773-.299.515-.448 1.231-.448 2.15zm16.812 3.904h-1.238v-5.284l-.784 2.806h-.957l-.772-2.806v5.284h-1.238V28.14h1.471l1.018 3.53 1.017-3.53h1.483z"/></g><g><path fill="#fff" d="M104.272 34.438H7.406v1.51h96.866z"/></g></g></g></svg>