<svg xmlns="http://www.w3.org/2000/svg" width="14" height="10" viewBox="0 0 14 10"><g><g ><path fill="#fff" d="M13.763 8.077c-.125.967-.58 1.548-1.661 1.683-1.082.134-2.74.24-5.379.24-2.455 0-3.847-.125-4.825-.24C.921 9.644.391 9.14.238 8.077.082 7.013 0 6.527 0 4.984 0 3.45.113 2.758.237 1.923.362 1.088.902.375 1.898.24 2.895.106 4.476 0 7.04 0c2.537 0 4.122.096 5.062.24.94.145 1.53.643 1.66 1.683.131 1.04.238 1.403.238 2.869 0 1.604-.113 2.317-.237 3.285zM5.529 2.816v4.08l3.82-2.04z"/></g></g></svg>