<svg xmlns="http://www.w3.org/2000/svg" width="20" height="16" viewBox="0 0 20 16"><g><g><path fill="#fff" d="M17.887 16H2.113A2.109 2.109 0 0 1 0 13.895V5.474a2.11 2.11 0 0 1 2.113-2.106h1.73l.946-1.614S5.718 0 6.69 0h6.69c.973 0 1.831 1.754 1.831 1.754l1.013 1.614h1.663A2.11 2.11 0 0 1 20 5.474v8.42A2.109 2.109 0 0 1 17.887 16zM13.815 2.14c-.32-.56-.62-.877-1.42-.877H7.675c-.918 0-1.21.292-1.557.939-.121.227-1.143 1.916-1.419 2.43H2.324c-.584 0-1.056.47-1.056 1.052v8c0 .581.472 1.053 1.056 1.053h15.352c.583 0 1.056-.472 1.056-1.053v-8c0-.581-.473-1.053-1.056-1.053h-2.375c-.272-.51-1.345-2.243-1.486-2.49zM10 14.105c-2.606 0-4.718-2.105-4.718-4.702 0-2.596 2.112-4.701 4.718-4.701s4.718 2.105 4.718 4.701c0 2.597-2.112 4.702-4.718 4.702zm.035-7.93a3.269 3.269 0 0 0-3.274 3.263 3.269 3.269 0 0 0 3.274 3.264 3.269 3.269 0 0 0 3.275-3.263 3.269 3.269 0 0 0-3.275-3.264zM8.485 2.25h3.093a.734.734 0 0 1 0 1.469H8.484a.734.734 0 1 1 0-1.469z"/></g></g></svg>