<svg xmlns="http://www.w3.org/2000/svg" width="15" height="19" viewBox="0 0 15 19"><g><g><path fill="#fff" d="M1.1 18.551s.349-3.242.386-4.988c.038-1.745-.275-2.017-.275-2.017C.929 10.348 0 10.186 0 7.062 0 3.99 1.61 0 6.66 0c5.051 0 7.212 4.635 7.212 7.118-.044 1.15-.44 1.513-.44 1.513l1.485 1.906s.348 1.055-.385 1.457a6.268 6.268 0 0 1-.936.224s.557.96 0 1.345c.214.17.126.727-.055.897-.18.17-.275.224-.275.224s.08.484.055.673c-.025.189-.067 1.473-1.816 1.345-1.75-.128-2.478-.28-2.478-.28l-.055 2.242s-.04.336-.385.336c-.346 0-.77-.336-.77-.336l.055-3.195s-.031-.45.55-.392c.58.058 1.593.399 2.917.448 1.118.007.771-.224.771-.224s.05-.173 0-.224c-.05-.052-.067-.629 0-.785.067-.156.275-.336.275-.336s-.404-.313-.165-.729c.095-.177.55-.28.55-.28s-.459-.082-.44-.841c.02-.759.44-.672.44-.672s.814-.005.936-.337c.05-.25-1.313-1.77-1.361-1.825 0 0-.268-.59-.015-1.145.253-.556.332-.839.33-1.121-.001-.283-.78-5.648-6.055-5.829-5.787.258-5.394 5.96-5.394 6.11.046 3.222 1.578 2.805 1.431 5.884 0 2.239-.33 5.212-.33 5.212s-.387.546-.826.56c-.439.016-.385-.392-.385-.392z"/></g></g></svg>