<svg xmlns="http://www.w3.org/2000/svg" width="21" height="22" viewBox="0 0 21 22"><g><g><path fill="#747474" d="M7.13 7.732a3.444 3.444 0 0 1 2.472 2.012l2.721-.743a4.46 4.46 0 0 1 .086-1c.477-2.378 2.767-3.918 5.115-3.44 2.348.477 3.865 2.792 3.388 5.17-.477 2.378-2.767 3.919-5.115 3.441a4.332 4.332 0 0 1-3.103-2.518l-2.812.768c-.01.14-.03.28-.058.42-.366 1.825-2.075 3.03-3.872 2.769l-1.445 2.934c.388.422.644.976.694 1.596.117 1.458-.95 2.734-2.384 2.85-1.434.116-2.69-.972-2.807-2.43-.117-1.458.95-2.734 2.384-2.85.22-.018.435-.007.643.028L4.4 13.971a3.506 3.506 0 0 1-1.335-3.504 3.49 3.49 0 0 1 1.602-2.3l-.923-2.875a2.604 2.604 0 0 1-.37-.048c-1.414-.288-2.328-1.683-2.04-3.116C1.62.695 3-.233 4.414.055 5.83.343 6.744 1.738 6.457 3.17a2.647 2.647 0 0 1-1.108 1.675l.905 2.822c.287-.016.581.004.877.064zm-2.975 2.957c-.256 1.28.56 2.527 1.825 2.784 1.264.257 2.497-.572 2.754-1.853.256-1.28-.56-2.527-1.825-2.784-1.264-.257-2.497.572-2.754 1.853z"/></g></g></svg>