<svg xmlns="http://www.w3.org/2000/svg" width="78" height="92" viewBox="0 0 78 92">
    <defs>
        <mask id="wfbab" width="2" height="2" x="-1" y="-1">
            <path fill="#fff" d="M9 11h60v70H9z"/>
            <path d="M68.306 80.882c-.939.34-6.12-.73-12.201-3.133-5.534-1.856-6.257-6.268-6.257-6.268v-7.207s-.37-1.586.625-2.194c2.836-1.516 4.067-7.208 4.067-7.208s-.28-1.696.626-1.88c2.366-.236 2.19-2.194 2.19-2.194s.919-4.542 1.251-5.64c.333-1.099.841-3.185-.312-2.82-1.154.363-1.565-.314-1.565-.314v-2.82s.6-1.23.626-4.074c-1.293-13.98-8.374-20.031-18.378-20.988-9.994.95-17.07 7.005-18.36 21.008.026 2.846.624 4.077.624 4.077v2.823s-.41.678-1.56.314c-1.152-.365-.645 1.723-.313 2.822.332 1.1 1.249 5.646 1.249 5.646s-.176 1.959 2.185 2.195c.904.185.624 1.882.624 1.882s1.229 5.696 4.058 7.214c.993.608.624 2.195.624 2.195v7.214s-.722 4.416-6.243 6.273C15.8 80.21 10.63 81.28 9.693 80.94c-1.561-.862 0-2.509 0-2.509s6.26-1.172 9.676-2.51c3.416-1.336 5.413-2.022 5.93-5.017-.028-.016 0-5.646 0-5.646s-4.103-3.93-4.681-9.095c-1.697-.854-2.257-1.08-2.81-3.137-.552-2.056-1.56-6.586-1.56-6.586s-1.347-6.203 1.56-7.214c-.08.11 0-3.943 0-5.959 0-3.44 1.816-20.92 21.075-22.256.005-.003.01-.012.015-.012l.068.005.068-.005c.005 0 .01.009.015.012 19.303 1.335 21.123 18.8 21.123 22.237 0 2.015.08 6.064 0 5.955 2.913 1.01 1.564 7.207 1.564 7.207s-1.01 4.527-1.564 6.581c-.554 2.054-1.115 2.28-2.816 3.134-.58 5.162-4.693 9.088-4.693 9.088s.029 5.625 0 5.64c.52 2.993 2.52 3.678 5.944 5.014 3.424 1.336 9.699 2.507 9.699 2.507s1.564 1.646 0 2.507z"/>
        </mask>
        <filter id="wfbaa" width="110" height="120" x="-16" y="-14" filterUnits="userSpaceOnUse">
            <feOffset in="SourceGraphic" result="FeOffset1205Out"/>
            <feGaussianBlur in="FeOffset1205Out" result="FeGaussianBlur1206Out" stdDeviation="6 6"/>
        </filter>
    </defs>
    <g>
        <g>
            <path fill="#17ddff"
                  d="M68.306 80.882c-.939.34-6.12-.73-12.201-3.133-5.534-1.856-6.257-6.268-6.257-6.268v-7.207s-.37-1.586.625-2.194c2.836-1.516 4.067-7.208 4.067-7.208s-.28-1.696.626-1.88c2.366-.236 2.19-2.194 2.19-2.194s.919-4.542 1.251-5.64c.333-1.099.841-3.185-.312-2.82-1.154.363-1.565-.314-1.565-.314v-2.82s.6-1.23.626-4.074c-1.293-13.98-8.374-20.031-18.378-20.988-9.994.95-17.07 7.005-18.36 21.008.026 2.846.624 4.077.624 4.077v2.823s-.41.678-1.56.314c-1.152-.365-.645 1.723-.313 2.822.332 1.1 1.249 5.646 1.249 5.646s-.176 1.959 2.185 2.195c.904.185.624 1.882.624 1.882s1.229 5.696 4.058 7.214c.993.608.624 2.195.624 2.195v7.214s-.722 4.416-6.243 6.273C15.8 80.21 10.63 81.28 9.693 80.94c-1.561-.862 0-2.509 0-2.509s6.26-1.172 9.676-2.51c3.416-1.336 5.413-2.022 5.93-5.017-.028-.016 0-5.646 0-5.646s-4.103-3.93-4.681-9.095c-1.697-.854-2.257-1.08-2.81-3.137-.552-2.056-1.56-6.586-1.56-6.586s-1.347-6.203 1.56-7.214c-.08.11 0-3.943 0-5.959 0-3.44 1.816-20.92 21.075-22.256.005-.003.01-.012.015-.012l.068.005.068-.005c.005 0 .01.009.015.012 19.303 1.335 21.123 18.8 21.123 22.237 0 2.015.08 6.064 0 5.955 2.913 1.01 1.564 7.207 1.564 7.207s-1.01 4.527-1.564 6.581c-.554 2.054-1.115 2.28-2.816 3.134-.58 5.162-4.693 9.088-4.693 9.088s.029 5.625 0 5.64c.52 2.993 2.52 3.678 5.944 5.014 3.424 1.336 9.699 2.507 9.699 2.507s1.564 1.646 0 2.507z"/>
        </g>
    </g>
</svg>