<svg xmlns="http://www.w3.org/2000/svg" width="24" height="15" viewBox="0 0 24 15"><g><g><path fill="#eaeaea" d="M4.058 3.969c.486 0 .88.406.88.908v5.246c0 .501-.394.908-.88.908s-.88-.407-.88-.908V4.877c0-.502.394-.908.88-.908zM.875 5.5c.483 0 .875.392.875.875v2.25a.875.875 0 0 1-1.75 0v-2.25C0 5.892.392 5.5.875 5.5zM7.235 0c.486 0 .88.407.88.908v13.184c0 .501-.394.908-.88.908-.487 0-.881-.407-.881-.908V.908c0-.501.394-.908.88-.908zm3.177 3.125c.486 0 .88.407.88.908v6.934c0 .501-.394.908-.88.908s-.88-.407-.88-.908V4.033c0-.501.394-.908.88-.908zm3.177 2.562c.486 0 .88.407.88.909v1.808c0 .502-.394.908-.88.908s-.88-.406-.88-.908V6.596c0-.502.394-.909.88-.909zM16.766.844c.486 0 .88.406.88.908v11.496c0 .502-.394.908-.88.908-.487 0-.88-.406-.88-.908V1.752c0-.502.393-.908.88-.908zm3.177 2.437c.486 0 .88.407.88.909v6.62c0 .502-.394.909-.88.909s-.88-.407-.88-.909V4.19c0-.502.394-.909.88-.909zM23.125 5c.483 0 .875.392.875.875v3.25a.875.875 0 1 1-1.75 0v-3.25c0-.483.392-.875.875-.875z"/></g></g></svg>